<?xml version="1.0" encoding="utf-8"?><!DOCTYPE svg PUBLIC "-//W3C//DTD SVG 1.1//EN" "http://www.w3.org/Graphics/SVG/1.1/DTD/svg11.dtd"><svg version="1.1" id="svgMap" xmlns="http://www.w3.org/2000/svg" xmlns:xlink="http://www.w3.org/1999/xlink" x="0px" y="0px" width="2298px" height="1027.536px" viewbox="0 -38.645 2298 1027.536" enable-background="new 0 -38.645 2298 1027.536" xml:space="preserve"><g id="perspective"><g id="svgMapBj"><g id="华南轮廓"><path id="taiwan" fill="none" stroke="#D9281C" stroke-miterlimit="10" d="M1062.179,775.942c-2.251-2,0.125-8.25-4.251-20 c-4.375-11.75-4.625-15.25-14.375-13c-9.751,2.25-12.751-6.5-13.751-13.25c-0.25-3.75-5.25,1.75-5.75,3.25 s-13.251,5.25-15.501,7.5s-15.75-0.75-21.5-0.5s-10.5,2.5-13.75,5.25s-3,1.75-8.25,2.5s-8.25,3.25-10.75,6s1.5-13.5-15.75-3 c-3.5,0-8.75-2.25-11-1.75s-12.5-8.75-21.75,3.25c2,10-1.75,9.75-5.5,9.75s-0.5-5.25-11.75-4c-7.049-0.891-11.5-3.25-18,3 c-7.108,6.299-4.5,5.75-4.75,8.25s6.25,3.5,10.25,0.75s7.25-2.5,2.75,3.5s-6.75-3-15.5,10c-2.602,3.779-2.354,1.773-5.25,3 c0,0-13.75,5-22.25,15.5s-10.75,8.75-15,9.25s-12.75,3.5-9.5,15s-0.5,10.5-4.5,11.5s1.5,5.75,3,13.25c2,9.75-4,11.25-1.5,21.25 s11.5,6.75,7.75,18s-0.75,17.5,7.5,17s9,3.5,10,5.5s9.25-1,11.75,5.75s14.25-3.75,18.75,6.75s9.25-3.25,20,2.25 s11.5,0.5,16.5,7.75c2.961,2.523,5-3.75,7.25,0s5.75,12.482,8.75,0.615c1.898-5.588,3.75-3.865,10.75-9.365s-1.25-15.5,13-9.75 c7.595,0.471,16.5-11.75,15-3.25c-0.11,5.906,2,5.5,5.5,4.25s6.25-5.5,7.25-7.25s4.5-20.25,26.5-22.75 c12.813-2.896,12-6.5,14-11.5c1.797-2.586,6-3,7-3.5s0.25-10.25-4.25-7.5c-2.188,2.438-0.5,5.5-3.75,5.75s-5.75-0.75-1-5 s5.25-3.75,5.75-7s0-10.75,0-10.75s7.25-3,5.25-12.5c-0.44-2.566,2-4.5,3.001-7c1-2.5,3.5-10.5,8.75-11.75s-1.25-3.5,5.5-8.75 c6.751-5.25-6.25-0.75,9.001-11.25c1-5.75,1-5.75-1.75-8.25c-2.751-2.5-4.001-4,4.5-5.5c8.5-1.5,2.519,0.383,0,4 c-1.01,3.473,0.168,6.168,1.168,6.668s9.666-4.5,12-8.5c1.645-1.795,4.208-0.793,6.333-0.793S1064.429,777.942,1062.179,775.942z"></path><path fill="none" stroke="#D9281C" stroke-miterlimit="10" d="M926.458,574.406c1.307-0.087,5.723,3.851,5.59,10.288 c1.375,3.274,1.5,1.333,3.834,1.333c2.332,0,8,0,8,0s3.166,10.166-3.834,11.333s-11-2-11.5,6.167 c-0.5,8.167-0.166,14.167-0.166,14.167s-6.5-2.334-7.334,3.834c-0.834,6.166,4.832,4.498-0.834,14.832 c-2.117,4.021-2.166,5.502-0.832,11.834c1.244,5.912,0.455,6.307,0.348,6.332c0.14-0.025,6.813-1.262,5.652,5.668 c0,0-1.334,7.332,3.332,7.666c0,0,9.834-0.166,8.834,1.5c-1,1.668-12.834,2.668-13.666,4.168c-0.834,1.5,8.5,5.166,13,6 c2.332,1-1.668,4.334-3.668,6.334s2.334,3.834,4.5,4c2.168,0.166,3,3.332,4.168,3.166c1.166-0.166,3.334-5.822,4.166,0.006 c0.834,5.828,10.834,3.994,11.334,7.494s0.334,5.832-2.334,4.832c-2.666-1-15.332-11.5-17.5-4c-0.461,2.828,3.832,6.666,5.666,10 c0,0,2,7.502,6.5,1.834c3.285-2.207,11.668,0.166,16.668,4.166s8,1.002,10.5-1.666c2.5-2.666,10.998,0.166,10.998,0.166 s3.334-8.666,13.168-5.666c5.832,1.5,4.166-2.666,2.666-2.666s-1.166-2.168-1.166-2.168s7.332-7.334,5.832-17 s-11.499-4.332-13.333-15.332c0,0-6.002,1.666-7.834,1.166c-1.834-0.5-0.666-14.666-0.666-14.666s2.832-4,4.166,1.334 c1.334,5.332,3.334,8.998,2.834-0.834c-3.668-8-5.668-5.168-12.168-6.668s-12.166-1-13.5-16.5l7-2.832l-0.666-8.166 c0,0,3-4.166,3.334,2c1.166,2.666,7.666-5.168,12.5-6.668c4.832-1.5,4.332-8.834,2.332-14.667c-2-5.833,1-5.667,2.668-6.5 c1.666-0.833,0.166-8.166-0.334-8.333s4-4,4.834,10.5c1.5,11.333,3.833,9,5.5,9.333c1.666,0.334,10.832-2.167,8.5,2.666 c-2.168,3.168-7.834-0.5-10.5,3.334c-2.5,2.834,5.832,1.5,6.832,6.666c1,5.168,7-3.334,8-7.666c1-4.334,0.834-12.333,2.168-15.5 c1.333-3.167,2.001,12.167,8.333-2.167c6.479-8.621,9.834-7,13.669-6.333c0,0,4.666,3.167,12.5-6.5 c4.832-3.833,1.666,7.334,12.501-3.333c0.332-3.5,4.334,2.167,6,3s6.5-7.668,9.001-4.834c2.5,2.834,1,2.5,4,2s0,3.834,0,3.834 s4.332,2.166,6.5-0.667c2.166-2.833-0.5-4.333-0.5-4.333s0.832-7.666,8.332-4c2.001,3.833,1.167,2,1.501-2s3.834-5.001,4.5,2.666 l9.668,0.667c0,0,3.498-8.834,8.333-1.667l2.834,0.334c0,0-1.332-9.666,9.5-12c0,0,2.334-7.334,0.334-8.167 s-11.166-2.166-6.834-4.333c4.334-2.167,4.834-2.168,6-3.334s6.667,1.834,7.335,4.334c0.666,2.5-1.334,6.332,3.832,6.666 c5.168,0.334,6.334,3,1,4.5c-5.332,1.5-3.666,6.333-7.666,8.5c-4.001,2.167,5.5,0.001,8.5-2.166s7.832-4.668,12.167-3.834 c1.771-0.202,0.5-4.333-2.001-4.833c-2.5-0.5-6.166-1.667-4.166-6.5s3.666-10.001,1.666-12.167s4.667,2.167,6.835,3.167 c2.166,1,13.5,1.5,15.834-0.833c2.333-2.333,4.499-1.667,2.333,2c-2.167,3.667,3.666,7.167,4,10.667s13.668-3.167,17.335-6.167 c3.666-3-0.332-9.833,0.334-13s-10.167-14.166-4.001-19.333c3.001-3,2.001,4.833,2.833,8.333c0.834,3.5,14.002-1.5,8.668,3 s-9.168,4.166-1.168,11.333s13.001,6.668,16.335,3.334s8.666-9.501,11.834-10.834c3.167-1.333,5.667-6.333,5.667-6.333 s5.832-3,5.666,5.5c2.994,5.563,5.834,4.832,8.5,4.666c2.668-0.166,7.834-8.5,7.834-8.5s-4.5-18.832,3.334-27.499 c2-6.834,0.332-11.668,0.332-13.334s3.002-7.166,2.834,5.334c0.254,3.777,5.834-0.5,8.334-4s4.166-1.334,1.666,2.166 s-6.166,6.916-6.666,9.166s-1.5,19,7,8.75c4.049-2.813,2.5,9,2,11.75s4.75-0.25,6-5.25s3.25-18.5,9-21.75c0,0,4,6.232-2,11.75 c-6.002,5.514,0.25,8.25-0.25,12s14,2,13.25-13.75c0,0,0.75-4.25,7.75-2.5s5.75-9.5,3.5-12.25s1.25-11.5-1-15s-0.25-10,1.25-15.5 s-14.25-16.75-21.25-20.75s7-0.5,19.5,9c7.25,4.5-1.75-10-7.5-11s-0.5-5.25,7.5,0.75c4.75,3.75,2.5-7.75-4-9.75 s-4.5-6.25-3.5-14.25s-7.084-5.417-1.75-9.417c5.332-4,3.166,17.5,8.832,14.167c5.668-3.333,3.834,1,2.168,5.5 c-1.668,4.5,0.5,3,2,6.5s5.166,3.834,8,5.167c2.832,1.333,7.166,1.167,8,8c0.832,6.833,2.334,10.165,9,13.499s1.5,4.501,2,5.334 s2.75,6.5,6,8.75s0,5.75,6,8.75s-1,1.75-5.75,4.5s-12.25,8.25-5.75,10.5s6.75-0.25,8-1.5s4.25,1,4.75,1.75s0.25,3.5,6.5-16.75 c2.25-2,7.5,1.25,11.25,3.75s0.5-4.5,10.75,3.25c3.896,1.042,5.5-0.25,4.25-3.75s-1.584-19.055,1.5-16.75 c6.106,4.557,13.168,2.168,21.168-0.166s11-5.666,4-7s-5.337-3.334-1.502-8.334c3.834-5-5.834-6.333-3.166-7.833 c2.666-1.5-4.334-6.5-1.168-6.5s10.668-1.5,11.334-3.834c0.668-2.334,8.334-3.333,8.334-3.333c2.666-0.666,8.332-5.5,8-1.334 c-0.334,4.166-5.334,5.334-7,7.5c-1.668,2.166-0.5,13.667-0.5,13.667c5.332,6.333,15-0.833,19.5-1.833 s-7.834-14.167-7.834-14.167s7.666-0.666,7.5,0s3.834,6.5,6.834,6.334s2.666-3.5,2.666-6s-1.673-6.987,1.5-7 c16,0.334,18-5,20.666-8.334s7-2,4.834,0.667s-5.666,7.5-3.166,7s6.015-0.67,7.332,2.833c0.666,6.5,4.668,9.5,7.168,9.167 s5.666-2.667,7.832-1.5s5.834,3.333,6.5,1.167s1.834-1,3-4.834s-9.5-1.666-8-3.833s1.834-7.167,1.334-9.833s0.5-3,6.166-2.834 s6.668-5,6.668-5c5.666-5,7.166-3.5,6.332-1.5c-0.832,2-4.332,4.333-4,4.833c0.334,0.5,8.834,0.667,10.334,4s-2.834,10.334,3,8 c5.832-2.334,11.834-8.5,15.834-8.333s7.166-2.5,7.166-2.5s-0.5-4.5-0.5-6.333s2.681-4.982,6-4.167 c2.666,4.167-0.5,2.333-0.5,7.333s4.5,2.834,6,0.334s6.334-3.167,8.666-8.167c2.334-5,9.168-5,11.668-3.833 s8.832,0.333,9.666,0.333c0.832,0,2.892,1.798,3.834-0.833c0.5-5.5,5-8,5-8s2.166-6.167,0.5-9 c-1.668-2.833,1.832-7.333,1.832-7.333l-0.332-4.334c0,0,1.332-1.5,2-0.333c0.666,1.167,6.5,4.833,6.166,4.167 c-0.332-0.666,3.666-5.334,3.666-5.334s7.5,2.5,7.834-1s-0.166-11.5-9.834-9.166c-9.666,2.334-13.332-1.834-12.332-5.167 s6-1.834,6.332-1.334c0.334,0.5,1.834-0.666,5.834,2s10.5,0.167,10.666-1.833s-3.166-4.666,1.334-5.833 c4.5-1.168,10.834-6.667,8.334-9.667s-1.834-5.666-1.834-5.666l3-0.834c-0.168-7.5,2.166-6.166,7.666-7.666s9,3.166,9,3.166 s0.668-2.417,0.584-3.667s-1.666-2.666-2.25-4.083s-2.166-3.25-2.5-5.583s-0.416-5.333-1.916-7.583s-4.834-4.167-6.5-6.585 c-1.666-2.417-1.25-4.417-1.25-6.417s-0.416-4.584-1.666-6.5s-3-2.584-4-4.667s-1-3.75,0-5.75s4.334-7.167,4.416-9 c0.084-1.833-1.416-4.25-2.832-5.667s-3.168-4.333-4.084-6.833c-0.918-2.5-1.5-7.167-2.5-9.417s-2.668-4.833-4.25-6.833 c-1.584-2-5.168-5.75-6.5-7.333c-1.334-1.583-3.418-4.334-3.334-5.834s1.416-5.25,2.084-6.416c0.666-1.166,0-2.084-1-2.5 s-7.75,0-10.25,0.083s-5.5,1.417-7.084,2.25c-1.582,0.833-4,2.833-5.75,3.417s-2.666,1.083-4.75-1.25 c-2.082-2.333-1-7.084-2.166-9.25c-1.168-2.166-3.5-3.667-5.75-4.25s-4.834-2.584-5.25-4c-0.418-1.416,2.332-5.584,1.916-6.417 s-4.166,1.917-5.416,3.083s-2.75,3.583-4.916,3.333s-6-3.083-8.334-3.25s-5.834,1.667-9.166,1.5 c-3.334-0.167-4.994-0.938-6.151-2.438c-1.158-1.498-4.563-4.753-6.14-5.39c-1.573-0.637-6.737,0-8.123,0 s-4.005-0.468-4.005-0.468c-0.313,1.313-3.5,3.813-5,4.813s-4.188,3.688-4.5,5.625c-0.313,1.938-2.125,3.188-2.125,6.063 s-0.688,8-0.188,9.313s1.625,4.5,3.625,6.875s3.5,4.563,3.125,5.25c-0.375,0.688-2.125,1.313-2.939,1.375 c-0.813,0.063-2.75,0.313-4,0s-5.188-0.688-6.813-1.5s-8.063-4.438-8.938-5.813s-4.375-4.688-5.375-6.75 c-1-2.063-3.125-4.938-4.063-5.438c-0.938-0.5-3.438-1.688-5.438-0.938s-4.188,2.313-5.875,2.688s-12.25,0.813-12.25,0.813 s-0.75,0.063-1.188,1.063c-0.438,1-1.063,3.375-1.75,3.938c-0.688,0.563-2.063,1.5-4.063,1.75s-4.063,0.125-5.188,0 s-2.125-1-3.563-0.938c-1.438,0.063-5.875,0.563-7.25,1.313s-4.875,1.625-6.125,2.688s-5.5,7.875-6.188,8.5 c-0.688,0.625-0.125,2.313-0.625,2.375c-0.5,0.063-6.813-3.625-7.875-3.625c-1.063,0-3-0.375-3.75,0.688 s-0.375,5.313-0.625,6.375s-0.875,0.625-1.875,0.75s-7.313-0.5-8-0.75c-0.688-0.25-4.125-1.125-5.313-0.813 c-1.188,0.313-4.688,1.375-6.5,2.375s-10.25,5.188-11.313,5.375c-1.063,0.188-2.813-1.25-3.188-1.375s-5.75-7.063-6.563-8.313 c-0.813-1.25-1.5-2.875-3.375-3.75s-2.813-2.063-4.688-2.813s-2.375-1.438-2.5-2.5s-0.813-0.5,1-2.688s9.625-6.063,11.188-7.875 c1.563-1.813,2.5-1.688,3-3.063s1.063-2.75,1.313-3.75s-0.563-5.125-0.5-6.75s0.063-3,0.188-4.125s0.375-1.813,1.5-2.813 s8.188-7.063,9-7.625c0.813-0.563,4.938-3.438,6.25-4c1.313-0.563,6.688-3.688,8.813-3.75c2.125-0.063,2.563,0.188,4.125-1.313 c1.563-1.501,1.375-2.938,1.438-4.5c0.063-1.563,0-13.375,0-13.375s-0.188-2-0.75-2.75c-0.563-0.75-4.125-3.5-5.625-4.75 s-10.25-9.375-11.563-9.688s-3.625-0.688-4.313-0.563c-0.688,0.125-2.75,1.188-3,1.563s-2,2.125-2.813,3.188 s-2.188,2.438-3.063,3.375c-0.875,0.938-3.75,3.75-4.188,4.125s-4.5,2.438-5.438,2.313c-0.938-0.125-5.938-0.188-7.625-0.438 c-1.687-0.25-6.063-0.438-7.063-0.5s-2.688,1.313-3.563,2c-0.875,0.688-2.063,1.563-3.375,1.563 c-1.313,0-3.938-0.125-4.188-0.188s-1.5-1.688-1.625-2.375s-0.563-3.188-0.625-4.188s-1.125-4.5-1.125-4.5 s-2.25-3.25-2.688-3.625c-0.438-0.375-3.438-2-3.438-2s-0.563-0.813-2.188-0.688c0,0-1.438,0.5-2.125,1.125 c-0.688,0.625-0.688,0.688-1.75,2.125c-1.063,1.438-1.688,3.125-2.188,4.875s-2.625,4.5-4.938,4.938 c-2.313,0.438-5.188,0.25-7.375,0.438c-2.187,0.188-5.5,1.25-7.625,1.813s-7.125,0.75-8.813,0.313s-3.125-1.688-5.75-1.875 s-5.063-0.25-7-0.25s-4.875-1.313-6.938-2.75c-2.063-1.438-5-6.375-5.75-8.313s-3.563-4.188-5.375-4.813 c-1.813-0.625-5.813-0.313-7.5,0.313c-1.688,0.626-7.063,5.875-8.625,8.125c-1.563,2.25-5.375,7-6.563,7.813 s-4.063,0.125-5.75,0.75c-1.688,0.625-1.375,2.563-4.125,3.25c-2.75,0.688-5.188,1.563-6.751,2.188s-2.313,2.375-1.688,4.188 s5.313,3.313,6.813,3.813s7.938-0.063,9.438,0.688s0.375,4.688-0.375,6.188s-2.313,6.938-2.188,9.063s2.375,7.063,3.25,8.688 s1.375,5.313,1,6.625s-3.188,3.25-6.063,3.625s-8,0.063-11.5-0.063s-8.125-3.063-9.375-4.438s-2.75-7.813-3.5-9.813 s-3.063-4.938-4.25-6c-1.188-1.062-3.939-2.438-6.252-3c-2.313-0.562-11.25-3.063-15.063-3.75 c-3.813-0.688-9.625-1.188-11.688-1.313c-2.063-0.125-6.563-0.063-8.25,0c-1.687,0.063-5.438,1.125-6.563,2.75 s-0.875,4.5-1.25,6.125s-1.938,4.063-2.688,5.813s-1.563,11.938-1.375,14.313c0.188,2.375-0.813,9.438-1.938,11.813 s-2.75,3.875-4.438,5.313c-1.521,1.292-4.679,2.522-7.023,2.941c-0.004,0-0.006-0.001-0.01-0.001 c-0.313-0.021-0.761,0.116-0.761,0.116c-2.375,0.25-23.671-0.688-26.688-0.74c-3.021-0.057-6.642,0.934-8.011,1.812 c-1.371,0.878-2.689,6.42-3.623,7.686c-0.935,1.263-2.578,3.072-5.871,3.236c-3.291,0.166-5.213-1.813-7.521-3.127 c-2.307-1.317-3.458-4.279-3.128-7.301c0.329-3.02,2.359-7.519,3.517-10.041c1.149-2.521,1.263-5.813,0.328-7.57 c-0.937-1.758-4.009-5.764-4.889-8.504c-0.877-2.743-1.532-9.713-1.975-11.414c-0.442-1.701-1.979-3.187-3.729-3.95 c-1.757-0.771-9-0.548-10.371-0.273c-1.373,0.273-3.186,1.098-4.723,2.415c-1.534,1.316-7.239,8.12-8.174,9.384 c-0.938,1.265-2.804,5.65-3.896,7.354c-1.099,1.703-4.556,3.842-6.971,4.28c-2.413,0.438-4.5-2.03-5.485-4.229 c-0.983-2.195-1.043-8.011-0.771-11.304c0.271-3.293,2.306-8.176,4.17-9.877c1.863-1.7,8.507-4.719,9.934-6.475 c1.431-1.759,0.554-3.68,1.537-6.424c0.985-2.742,6.914-9.603,8.614-12.232c1.697-2.633,9.219-13.771,9.934-15.639 c0.715-1.867,0.438-6.258-0.271-8.064c-0.713-1.811-1.594-7.683-1.594-9.877c0-2.195,1.207-5.543,2.963-7.134 c1.756-1.591,6.258-4.773,8.614-6.091c2.354-1.316,5.598-3.127,4.771-4.557c-0.822-1.428-4.558-3.512-6.421-4.227 c-1.862-0.716-7.188-1.48-8.729-1.207c-1.535,0.271-2.854,2.356-4.442,2.905c-1.591,0.552-3.021-0.877-4.559-2.414 c-1.534-1.533-2.797-5.483-2.577-7.298c0.225-1.812,2.854-8.778,3.786-11.139c0.937-2.36,3.785-10.535,4.007-12.896 c0.224-2.361-0.491-7.3-1.479-8.67c-0.985-1.371-3.846-2.636-5.871-3.071c-2.03-0.438-11.637-1.263-14.319-1.316 c-2.688-0.054-5.156-1.043-6.641-2.47c-1.479-1.426-3.563-5.871-4.5-5.213c-0.938,0.659-2.357,6.42-2.963,7.957 c-0.604,1.535-3.129,3.127-5.651,3.95c-2.521,0.823-7.57,0.713-9.221,0c-1.646-0.713-4.498-4.007-5.979-4.556 c-1.479-0.55-4.604-0.657-6.146-0.716c-1.536-0.056-5.541,1.151-7.354,2.086c-1.813,0.937-4.007,4.607-4.884,6.642 c-0.881,2.029-1.151,4.441-2.146,5.762c-0.985,1.316-4.883,3.785-5.979,4.279c-1.099,0.49-3.896,2.688-4.99,4.392 c-1.101,1.702-2.31,5.269-3.295,7.077c-0.982,1.812-3.619,8.285-5.269,8.285c-1.646,0-2.908-1.535-3.845-3.021 c-0.934-1.483-1.862-6.091-3.018-7.298c-1.156-1.207-3.951,0.328-4.992,1.149c-1.043,0.822-4.772,4.608-5.707,4.721 c-0.937,0.107-1.758-0.387-2.635-1.979c-0.882-1.593-1.316-9.712-1.535-11.193c-0.224-1.479-2.086-3.512-3.729-4.39 c-1.646-0.878-6.035-0.438-8.67-0.329c-2.636,0.11-5.377,1.646-6.478,2.963c-1.101,1.316-0.771,5.542-1.646,7.188 c-0.877,1.646-1.646,2.414-3.072,3.347c-1.426,0.935-4.276,3.786-5.104,4.993c-0.823,1.207-0.819,3.347-0.877,5.433 c-0.057,2.084,0.658,6.857,0.107,8.177c-0.548,1.317-1.1,1.48-3.4,1.7c-2.307,0.219-3.784-0.22-5.6-1.098 c-1.813-0.878-2.962-2.415-2.688-4.006c0.273-1.594,3.847-4.887,3.787-7.243c-0.06-2.358-1.862-3.622-3.787-3.896 c-1.92-0.271-5.926,1.701-8.176,1.865c-2.248,0.166-7.408,0.164-9.328,0.164c-1.922,0-4.894,0.566-4.894,0.566 c-1.188,1.875-2.625,5.625-2.688,6.75c-0.063,1.125-0.25,4.188-2.063,5.313c-1.813,1.125-4.604,4.729-5.521,6.646 c-0.918,1.918-0.668,5-3.25,6c-2.584,1-7.668-0.25-10.002-0.582c-2.334-0.334-9.666-2.5-11.25-2.918 c-1.584-0.416-3.25-0.666-5.25-0.166s-5.666,3.166-7.75,4.666s-4.166,6.25-3.166,7.084s4.584-0.416,6.25-1.416 c1.668-1,5.084-2.084,5.666-0.668c0.584,1.416-1.416,3.918-2,5.584c-0.584,1.668,1,5.916,1.668,7.084 c0.666,1.166,1.082,5-0.168,6.166c-1.25,1.168-4.416,1.25-6.666,1.084c-2.25-0.168-5.75-1.834-7.416-2.25 c-1.668-0.416-4.5-0.75-6.5-0.668c-2,0.084-5.668,0.084-6.918-0.75c-1.25-0.832-3.25-3.666-4.166-4.916s-2.166-2.334-3.084-2.166 c-0.916,0.166-1.75,1.166-2.166,3.082c-0.416,1.918-0.666,5.084-1.25,6.5c-0.582,1.418-1.666,2.25-2.334,3.668 c-0.666,1.416-1.082,12.416-1.166,14.25c-0.082,1.832-1.916,4.5-3.334,4.5c-1.416,0-2.5-1.668-3-3.084s-1.666-6.416-3.082-7.916 c-1.418-1.5-4-1.75-5.666-1.834c-1.666-0.082-5.25,0.084-6.668-0.584c-1.416-0.666-3.832-4.5-4.832-5.5s-2.5-2.75-3.918-2.416 c-1.416,0.334-4.5,5-5.332,6.25c-0.834,1.25-1.5,1.584-2.918,1.416c-1.416-0.166-2.666-1.666-3.666-1.666 s-3.25,2.916-3.666,3.584c-0.416,0.666-3.418,7.5-3.25,9.666c0.166,2.166,0.832,9.084-0.418,10.334s-2.5,1.166-4.334,1.582 c-1.834,0.418-6.75,2.75-8.5,3.418c-1.75,0.666-5.5,2.166-7.75,3.25s-6,2.916-7.916,3.416s-3.416-1.416-4.416-2.75 s-2.669-5.666-4.334-6.166c-1.666-0.5-3.584,1-5.334,1.25s-2.582-0.418-3.5-1.75c-0.916-1.334-1.5-8.5-1.832-9.334 c-0.334-0.834-0.918-0.916-2.5-0.25c-1.584,0.666-6.5,6.75-7.834,7.5c-1.332,0.75-5.5,0-6.334-1.334 c-0.834-1.332-4.166-8.5-5.5-10.332c-1.334-1.834-4.75-5.918-6.166-7.418s-2.584-3.332-3.416-5.666 c-0.834-2.334-2.334-5.666-3.75-7.666c-1.418-2-4.75-4.25-6.5-5.084s-5.084-1-8.25-0.916c-3.168,0.084-6,2.332-8.25,3.832 s-5,5.918-5.584,8.084c-0.582,2.166-0.166,15.916,0,17.916c0.168,2-2.938,4.604-4,4.543c-1.063-0.063-3.688,0.188-4.25,1.188 c-0.563,1-0.813,2.938-0.813,4.125c0,1.188-1.375,2.688-3.375,3.125c-2,0.438-8.813-0.25-10.875-0.75 c-2.062-0.5-5.375-0.188-7.625-0.125s-8.063,4.438-10.063,5.813s-14.25,10.875-15.813,12.188c-1.563,1.313-6.625,3.5-9.625,3.75 s-11.438-1.688-12.625-1.625c-1.187,0.063-1.75,1.688-1.938,3.188c-0.188,1.5,2.25,3.938,2.688,5.563 c0.438,1.625,0.813,10.125-0.563,11.813s-5.25,4.438-6.625,4.813s-4.938,0.688-6.125,1.375c-1.188,0.687-2.5,4.625-4.313,5.625 c-1.813,1-3.625,1-5.75,0s-6.75-5.688-8.875-5.75c-2.125-0.063-8.188,1.688-10.813,1s-7.688-7.375-9.625-8.25 c-1.938-0.875-4.063,0-5.563-0.75s-1.688-1.75-3.375-2.813c-1.687-1.063-7.5-0.5-9.063-1c-1.563-0.5-3.188-1.75-3.75-3.5 c-0.563-1.75-2.063-7.125-3.313-8.5s-5.5-1.813-7.375-1.813s-8.5,0.125-10-1s-2.188-4.375-3.125-6 c-0.937-1.625-2.313-1.438-4.438-0.688s-3,4.375-4.75,5.5s-2.5,0.625-4.875,1.375s-2.625,3.375-4.375,6.25s-2.625,8.5-5.375,9.5 s-9,1.5-11.125,3s-3.875,5.625-4.875,6.875s-1.875,1.625-4.375,2.375s-4.875,3.5-8,3.25s-3-3.875-4.125-5 s-2.75-0.375-4.375-0.891c-1.625-0.514-3.5-3.859-4.875-4.609s-3.125-0.625-5.625,0s-6.302,4.609-6.302,4.609l0.075,2.823 c0.364,1.979,4.37,12.388,5.255,14.416c0.885,2.029,6.244,11.761,7.753,13.112c1.509,1.351,4.163,4.684,6.086,4.523 c1.927-0.155,2.705-2.496,3.02-3.482c0.313-0.989,2.813-5.205,3.594-5.936c0.777-0.729,4.73-1.718,6.813-1.041 c2.081,0.677,7.854,2.604,9.989,3.068c2.135,0.469,8.013,1.041,10.095,0.885c2.082-0.155,6.088,0.104,7.6,0.313 c1.51,0.209,5.408,2.551,6.449,4.424c1.041,1.873,4.008,9.003,4.838,10.72c0.834,1.72,3.279,4.996,3.438,6.353 c0.152,1.354-3.692,4.685-4.479,5.981c-0.78,1.3-0.677,4.634,0,5.673c0.677,1.041,6.559,2.86,7.752,3.645 c1.196,0.781,2.968,1.927,4.526,1.873c1.56-0.053,2.136-2.237,3.692-2.706c1.563-0.468,2.341-0.47,2.858,0.624 c0.521,1.093,2.657,4.997,3.854,5.937c1.194,0.938,4.008,1.718,5.825,1.667c1.819-0.057,5.2-1.354,5.671-2.292 c0.473-0.938,0.363-5.311,1.307-5.827c0.937-0.521,2.854-1.146,4.006-0.416c1.146,0.729,4.431,2.76,6.041,3.487 c1.611,0.729,4.269,1.563,6.188,1.611c1.93,0.053,5.201,0.469,6.449,0.832c1.25,0.363,3.543,5.153,5.155,5.414 c1.61,0.262,4.213-1.511,5.103-2.604c0.889-1.094,6.24-5.358,7.129-6.146c0.889-0.78,3.897-1.927,4.992-1.979 c1.098-0.052,2.604,1.25,2.653,2.446c0.052,1.193,0.261,4.893,0.677,5.564c0.418,0.676,4.639,2.551,5.569,3.539 c0.938,0.988,1.819,3.383,1.612,5.146c-0.209,1.771-1.821,4.221-1.354,5.205c0.469,0.987,3.693,1.403,5.412,1.194 c1.718-0.207,4.268-1.041,4.994-0.104c0.729,0.938,0.153,4.998-0.416,6.563c-0.572,1.563-2.76,6.974-3.07,8.74 c-0.313,1.771-1.771,10.825-2.084,12.753c-0.313,1.927-1.092,8.527-1.508,10.042c-0.416,1.512-6.506,8.948-8.019,9.682 c-1.512,0.729-3.593,0.778-4.786-0.313c-1.193-1.099-3.854-2.707-5.148-3.539s-5.203-1.664-6.867-1.722 c-1.666-0.053-9.631,4.318-11.033,5.152c-1.401,0.832-7.646,2.813-8.946,3.537c-1.306,0.729-4.578,3.385-5.259,4.732 c-0.68,1.354-4.428,7.909-5.885,9.423c-1.457,1.511-5.463,5.466-6.449,7.021c-0.987,1.563-2.703,4.526-3.483,4.787 c-0.781,0.262-2.479-1.604-2.479-1.604c2.834,6.5,4.666,7.001,5.834,11.834c1.166,4.833,14.5-0.833,28.5,15.5 c15.375,9.458,14-2.335,24.166-2.501s18.5,5.5,16.334,13c-1.834,3.501,12.166,3.001,18,1.501 c5.832-1.5,13.998-16.334,26.166,2.833c7.834,19.333-0.834,23.832-11.834,30.166s-4.832,19.334,4.5,26.667 c9.334,7.333,2.834,20.5,5.668,34c4.166,8.333,6.166,4.167,15.166,4c6.166,0.667-1.834,4,11.666,5 c6.834,3.333-1.166,6.166,1.169,10.833c2.331,4.667,10.831,2.169,11.831,8.834c4.669,4.5,10.169-0.501,14.669,2.333 s5.166,2.499,12.166,11.333c0,0,7.5-4.166,15.166,2.667c13.294,2.292,12.166-5,27.334-7c12,1.334,10.084,6.667,20,14.334 c0,0,4.084-2.917,4.334-7.167s5.25,1.75,3.5,9l13.5,1c0,0,2.75-6.5,2.75-9s4.25-0.5,2.75,11c0.983,4.145,8.5-4,10-8.75 s12-0.75,14,2s6.75-3.5,3.75-7.5s9.25-14-6.25-20.75c0,0,6.5,0.5,8.25-6.25s4,4.5,10.25,5.25c2.645,0.995,0.25,4.25-2,5.25 s0.5,7,0.5,7s8.5-10.75,6.25-2c-2,6.5,2.75,3,5.5,6s6.081,7.584,9.416,10.084c3.334,2.5,4.003-10.833,1.834-18.5 c-2-4.667,9.166,2,9.834,3c0.666,1-6.334,2.333-3.5,11.833c2.94,5.124,5,3,7.166,3c2.169,0,9-3.166,13.834,4.334 c3.692,4.398,4.166,1.334,6.166,12c3.334,4.166,7.503,3,9.669,2.833s19.997-1,19.997-1s3-3.833,6-2s6.666-10.834,4.5-14.167 s-10.334-7.832-3-7.666c0,0,5.666-5.167,9-9.167c1.669-2.167,2,3.001-0.331,4.167c-2.334,1.166-1.834,5.166-0.169,6.166 c1.669,1-2,8.167,0.169,10.667c2.166,2.5,6.166-8.001,8.166-2.167s-6,7.167-1.666,10.167c4.331,3,4.5-0.333,5.5,2.5 s3.331-5.334,1.831-9.667c0,0,0.003-0.014,0.006-0.021c0.004,0.01,0.002,0.014,0.007,0.021 C926.214,575.36,926.305,574.969,926.458,574.406c-0.004,0.001-0.008,0-0.013,0.001"></path></g></g><g id="华南"><g id="华南轮廓_1_"><path fill="none" stroke="#D9281C" stroke-miterlimit="10" d="M1062.179,775.942c-2.251-2,0.125-8.25-4.251-20 c-4.375-11.75-4.625-15.25-14.375-13c-9.751,2.25-12.751-6.5-13.751-13.25c-0.25-3.75-5.25,1.75-5.75,3.25 s-13.251,5.25-15.501,7.5s-15.75-0.75-21.5-0.5s-10.5,2.5-13.75,5.25s-3,1.75-8.25,2.5s-8.25,3.25-10.75,6s1.5-13.5-15.75-3 c-3.5,0-8.75-2.25-11-1.75s-12.5-8.75-21.75,3.25c2,10-1.75,9.75-5.5,9.75s-0.5-5.25-11.75-4c-7.049-0.891-11.5-3.25-18,3 c-7.108,6.299-4.5,5.75-4.75,8.25s6.25,3.5,10.25,0.75s7.25-2.5,2.75,3.5s-6.75-3-15.5,10c-2.602,3.779-2.354,1.773-5.25,3 c0,0-13.75,5-22.25,15.5s-10.75,8.75-15,9.25s-12.75,3.5-9.5,15s-0.5,10.5-4.5,11.5s1.5,5.75,3,13.25c2,9.75-4,11.25-1.5,21.25 s11.5,6.75,7.75,18s-0.75,17.5,7.5,17s9,3.5,10,5.5s9.25-1,11.75,5.75s14.25-3.75,18.75,6.75s9.25-3.25,20,2.25 s11.5,0.5,16.5,7.75c2.961,2.523,5-3.75,7.25,0s5.75,12.482,8.75,0.615c1.898-5.588,3.75-3.865,10.75-9.365s-1.25-15.5,13-9.75 c7.595,0.471,16.5-11.75,15-3.25c-0.11,5.906,2,5.5,5.5,4.25s6.25-5.5,7.25-7.25s4.5-20.25,26.5-22.75 c12.813-2.896,12-6.5,14-11.5c1.797-2.586,6-3,7-3.5s0.25-10.25-4.25-7.5c-2.188,2.438-0.5,5.5-3.75,5.75s-5.75-0.75-1-5 s5.25-3.75,5.75-7s0-10.75,0-10.75s7.25-3,5.25-12.5c-0.44-2.566,2-4.5,3.001-7c1-2.5,3.5-10.5,8.75-11.75s-1.25-3.5,5.5-8.75 c6.751-5.25-6.25-0.75,9.001-11.25c1-5.75,1-5.75-1.75-8.25c-2.751-2.5-4.001-4,4.5-5.5c8.5-1.5,2.519,0.383,0,4 c-1.01,3.473,0.168,6.168,1.168,6.668s9.666-4.5,12-8.5c1.645-1.795,4.208-0.793,6.333-0.793S1064.429,777.942,1062.179,775.942z"></path><path fill="none" stroke="#D9281C" stroke-miterlimit="10" d="M926.458,574.406c1.307-0.087,5.723,3.851,5.59,10.288 c1.375,3.274,1.5,1.333,3.834,1.333c2.332,0,8,0,8,0s3.166,10.166-3.834,11.333s-11-2-11.5,6.167 c-0.5,8.167-0.166,14.167-0.166,14.167s-6.5-2.334-7.334,3.834c-0.834,6.166,4.832,4.498-0.834,14.832 c-2.117,4.021-2.166,5.502-0.832,11.834c1.244,5.912,0.455,6.307,0.348,6.332c0.14-0.025,6.813-1.262,5.652,5.668 c0,0-1.334,7.332,3.332,7.666c0,0,9.834-0.166,8.834,1.5c-1,1.668-12.834,2.668-13.666,4.168c-0.834,1.5,8.5,5.166,13,6 c2.332,1-1.668,4.334-3.668,6.334s2.334,3.834,4.5,4c2.168,0.166,3,3.332,4.168,3.166c1.166-0.166,3.334-5.822,4.166,0.006 c0.834,5.828,10.834,3.994,11.334,7.494s0.334,5.832-2.334,4.832c-2.666-1-15.332-11.5-17.5-4c-0.461,2.828,3.832,6.666,5.666,10 c0,0,2,7.502,6.5,1.834c3.285-2.207,11.668,0.166,16.668,4.166s8,1.002,10.5-1.666c2.5-2.666,10.998,0.166,10.998,0.166 s3.334-8.666,13.168-5.666c5.832,1.5,4.166-2.666,2.666-2.666s-1.166-2.168-1.166-2.168s7.332-7.334,5.832-17 s-11.499-4.332-13.333-15.332c0,0-6.002,1.666-7.834,1.166c-1.834-0.5-0.666-14.666-0.666-14.666s2.832-4,4.166,1.334 c1.334,5.332,3.334,8.998,2.834-0.834c-3.668-8-5.668-5.168-12.168-6.668s-12.166-1-13.5-16.5l7-2.832l-0.666-8.166 c0,0,3-4.166,3.334,2c1.166,2.666,7.666-5.168,12.5-6.668c4.832-1.5,4.332-8.834,2.332-14.667c-2-5.833,1-5.667,2.668-6.5 c1.666-0.833,0.166-8.166-0.334-8.333s4-4,4.834,10.5c1.5,11.333,3.833,9,5.5,9.333c1.666,0.334,10.832-2.167,8.5,2.666 c-2.168,3.168-7.834-0.5-10.5,3.334c-2.5,2.834,5.832,1.5,6.832,6.666c1,5.168,7-3.334,8-7.666c1-4.334,0.834-12.333,2.168-15.5 c1.333-3.167,2.001,12.167,8.333-2.167c6.479-8.621,9.834-7,13.669-6.333c0,0,4.666,3.167,12.5-6.5 c4.832-3.833,1.666,7.334,12.501-3.333c0.332-3.5,4.334,2.167,6,3s6.5-7.668,9.001-4.834c2.5,2.834,1,2.5,4,2s0,3.834,0,3.834 s4.332,2.166,6.5-0.667c2.166-2.833-0.5-4.333-0.5-4.333s0.832-7.666,8.332-4c2.001,3.833,1.167,2,1.501-2s3.834-5.001,4.5,2.666 l9.668,0.667c0,0,3.498-8.834,8.333-1.667l2.834,0.334c0,0-1.332-9.666,9.5-12c0,0,2.334-7.334,0.334-8.167 s-11.166-2.166-6.834-4.333c4.334-2.167,4.834-2.168,6-3.334s6.667,1.834,7.335,4.334c0.666,2.5-1.334,6.332,3.832,6.666 c5.168,0.334,6.334,3,1,4.5c-5.332,1.5-3.666,6.333-7.666,8.5c-4.001,2.167,5.5,0.001,8.5-2.166s7.832-4.668,12.167-3.834 c1.771-0.202,0.5-4.333-2.001-4.833c-2.5-0.5-6.166-1.667-4.166-6.5s3.666-10.001,1.666-12.167s4.667,2.167,6.835,3.167 c2.166,1,13.5,1.5,15.834-0.833c2.333-2.333,4.499-1.667,2.333,2c-2.167,3.667,3.666,7.167,4,10.667s13.668-3.167,17.335-6.167 c3.666-3-0.332-9.833,0.334-13s-10.167-14.166-4.001-19.333c3.001-3,2.001,4.833,2.833,8.333c0.834,3.5,14.002-1.5,8.668,3 s-9.168,4.166-1.168,11.333s13.001,6.668,16.335,3.334s8.666-9.501,11.834-10.834c3.167-1.333,5.667-6.333,5.667-6.333 s5.832-3,5.666,5.5c2.994,5.563,5.834,4.832,8.5,4.666c2.668-0.166,7.834-8.5,7.834-8.5s-4.5-18.832,3.334-27.499 c2-6.834,0.332-11.668,0.332-13.334s3.002-7.166,2.834,5.334c0.254,3.777,5.834-0.5,8.334-4s4.166-1.334,1.666,2.166 s-6.166,6.916-6.666,9.166s-1.5,19,7,8.75c4.049-2.813,2.5,9,2,11.75s4.75-0.25,6-5.25s3.25-18.5,9-21.75c0,0,4,6.232-2,11.75 c-6.002,5.514,0.25,8.25-0.25,12s14,2,13.25-13.75c0,0,0.75-4.25,7.75-2.5s5.75-9.5,3.5-12.25s1.25-11.5-1-15s-0.25-10,1.25-15.5 s-14.25-16.75-21.25-20.75s7-0.5,19.5,9c7.25,4.5-1.75-10-7.5-11s-0.5-5.25,7.5,0.75c4.75,3.75,2.5-7.75-4-9.75 s-4.5-6.25-3.5-14.25s-7.084-5.417-1.75-9.417c5.332-4,3.166,17.5,8.832,14.167c5.668-3.333,3.834,1,2.168,5.5 c-1.668,4.5,0.5,3,2,6.5s5.166,3.834,8,5.167c2.832,1.333,7.166,1.167,8,8c0.832,6.833,2.334,10.165,9,13.499s1.5,4.501,2,5.334 s2.75,6.5,6,8.75s0,5.75,6,8.75s-1,1.75-5.75,4.5s-12.25,8.25-5.75,10.5s6.75-0.25,8-1.5s4.25,1,4.75,1.75s0.25,3.5,6.5-16.75 c2.25-2,7.5,1.25,11.25,3.75s0.5-4.5,10.75,3.25c3.896,1.042,5.5-0.25,4.25-3.75s-1.584-19.055,1.5-16.75 c6.106,4.557,13.168,2.168,21.168-0.166s11-5.666,4-7s-5.337-3.334-1.502-8.334c3.834-5-5.834-6.333-3.166-7.833 c2.666-1.5-4.334-6.5-1.168-6.5s10.668-1.5,11.334-3.834c0.668-2.334,8.334-3.333,8.334-3.333c2.666-0.666,8.332-5.5,8-1.334 c-0.334,4.166-5.334,5.334-7,7.5c-1.668,2.166-0.5,13.667-0.5,13.667c5.332,6.333,15-0.833,19.5-1.833 s-7.834-14.167-7.834-14.167s7.666-0.666,7.5,0s3.834,6.5,6.834,6.334s2.666-3.5,2.666-6s-1.673-6.987,1.5-7 c16,0.334,18-5,20.666-8.334s7-2,4.834,0.667s-5.666,7.5-3.166,7s6.015-0.67,7.332,2.833c0.666,6.5,4.668,9.5,7.168,9.167 s5.666-2.667,7.832-1.5s5.834,3.333,6.5,1.167s1.834-1,3-4.834s-9.5-1.666-8-3.833s1.834-7.167,1.334-9.833s0.5-3,6.166-2.834 s6.668-5,6.668-5c5.666-5,7.166-3.5,6.332-1.5c-0.832,2-4.332,4.333-4,4.833c0.334,0.5,8.834,0.667,10.334,4s-2.834,10.334,3,8 c5.832-2.334,11.834-8.5,15.834-8.333s7.166-2.5,7.166-2.5s-0.5-4.5-0.5-6.333s2.681-4.982,6-4.167 c2.666,4.167-0.5,2.333-0.5,7.333s4.5,2.834,6,0.334s6.334-3.167,8.666-8.167c2.334-5,9.168-5,11.668-3.833 s8.832,0.333,9.666,0.333c0.832,0,2.892,1.798,3.834-0.833c0.5-5.5,5-8,5-8s2.166-6.167,0.5-9 c-1.668-2.833,1.832-7.333,1.832-7.333l-0.332-4.334c0,0,1.332-1.5,2-0.333c0.666,1.167,6.5,4.833,6.166,4.167 c-0.332-0.666,3.666-5.334,3.666-5.334s7.5,2.5,7.834-1s-0.166-11.5-9.834-9.166c-9.666,2.334-13.332-1.834-12.332-5.167 s6-1.834,6.332-1.334c0.334,0.5,1.834-0.666,5.834,2s10.5,0.167,10.666-1.833s-3.166-4.666,1.334-5.833 c4.5-1.168,10.834-6.667,8.334-9.667s-1.834-5.666-1.834-5.666l3-0.834c-0.168-7.5,2.166-6.166,7.666-7.666s9,3.166,9,3.166 s0.668-2.417,0.584-3.667s-1.666-2.666-2.25-4.083s-2.166-3.25-2.5-5.583s-0.416-5.333-1.916-7.583s-4.834-4.167-6.5-6.585 c-1.666-2.417-1.25-4.417-1.25-6.417s-0.416-4.584-1.666-6.5s-3-2.584-4-4.667s-1-3.75,0-5.75s4.334-7.167,4.416-9 c0.084-1.833-1.416-4.25-2.832-5.667s-3.168-4.333-4.084-6.833c-0.918-2.5-1.5-7.167-2.5-9.417s-2.668-4.833-4.25-6.833 c-1.584-2-5.168-5.75-6.5-7.333c-1.334-1.583-3.418-4.334-3.334-5.834s1.416-5.25,2.084-6.416c0.666-1.166,0-2.084-1-2.5 s-7.75,0-10.25,0.083s-5.5,1.417-7.084,2.25c-1.582,0.833-4,2.833-5.75,3.417s-2.666,1.083-4.75-1.25 c-2.082-2.333-1-7.084-2.166-9.25c-1.168-2.166-3.5-3.667-5.75-4.25s-4.834-2.584-5.25-4c-0.418-1.416,2.332-5.584,1.916-6.417 s-4.166,1.917-5.416,3.083s-2.75,3.583-4.916,3.333s-6-3.083-8.334-3.25s-5.834,1.667-9.166,1.5 c-3.334-0.167-4.994-0.938-6.151-2.438c-1.158-1.498-4.563-4.753-6.14-5.39c-1.573-0.637-6.737,0-8.123,0 s-4.005-0.468-4.005-0.468c-0.313,1.313-3.5,3.813-5,4.813s-4.188,3.688-4.5,5.625c-0.313,1.938-2.125,3.188-2.125,6.063 s-0.688,8-0.188,9.313s1.625,4.5,3.625,6.875s3.5,4.563,3.125,5.25c-0.375,0.688-2.125,1.313-2.939,1.375 c-0.813,0.063-2.75,0.313-4,0s-5.188-0.688-6.813-1.5s-8.063-4.438-8.938-5.813s-4.375-4.688-5.375-6.75 c-1-2.063-3.125-4.938-4.063-5.438c-0.938-0.5-3.438-1.688-5.438-0.938s-4.188,2.313-5.875,2.688s-12.25,0.813-12.25,0.813 s-0.75,0.063-1.188,1.063c-0.438,1-1.063,3.375-1.75,3.938c-0.688,0.563-2.063,1.5-4.063,1.75s-4.063,0.125-5.188,0 s-2.125-1-3.563-0.938c-1.438,0.063-5.875,0.563-7.25,1.313s-4.875,1.625-6.125,2.688s-5.5,7.875-6.188,8.5 c-0.688,0.625-0.125,2.313-0.625,2.375c-0.5,0.063-6.813-3.625-7.875-3.625c-1.063,0-3-0.375-3.75,0.688 s-0.375,5.313-0.625,6.375s-0.875,0.625-1.875,0.75s-7.313-0.5-8-0.75c-0.688-0.25-4.125-1.125-5.313-0.813 c-1.188,0.313-4.688,1.375-6.5,2.375s-10.25,5.188-11.313,5.375c-1.063,0.188-2.813-1.25-3.188-1.375s-5.75-7.063-6.563-8.313 c-0.813-1.25-1.5-2.875-3.375-3.75s-2.813-2.063-4.688-2.813s-2.375-1.438-2.5-2.5s-0.813-0.5,1-2.688s9.625-6.063,11.188-7.875 c1.563-1.813,2.5-1.688,3-3.063s1.063-2.75,1.313-3.75s-0.563-5.125-0.5-6.75s0.063-3,0.188-4.125s0.375-1.813,1.5-2.813 s8.188-7.063,9-7.625c0.813-0.563,4.938-3.438,6.25-4c1.313-0.563,6.688-3.688,8.813-3.75c2.125-0.063,2.563,0.188,4.125-1.313 c1.563-1.501,1.375-2.938,1.438-4.5c0.063-1.563,0-13.375,0-13.375s-0.188-2-0.75-2.75c-0.563-0.75-4.125-3.5-5.625-4.75 s-10.25-9.375-11.563-9.688s-3.625-0.688-4.313-0.563c-0.688,0.125-2.75,1.188-3,1.563s-2,2.125-2.813,3.188 s-2.188,2.438-3.063,3.375c-0.875,0.938-3.75,3.75-4.188,4.125s-4.5,2.438-5.438,2.313c-0.938-0.125-5.938-0.188-7.625-0.438 c-1.687-0.25-6.063-0.438-7.063-0.5s-2.688,1.313-3.563,2c-0.875,0.688-2.063,1.563-3.375,1.563 c-1.313,0-3.938-0.125-4.188-0.188s-1.5-1.688-1.625-2.375s-0.563-3.188-0.625-4.188s-1.125-4.5-1.125-4.5 s-2.25-3.25-2.688-3.625c-0.438-0.375-3.438-2-3.438-2s-0.563-0.813-2.188-0.688c0,0-1.438,0.5-2.125,1.125 c-0.688,0.625-0.688,0.688-1.75,2.125c-1.063,1.438-1.688,3.125-2.188,4.875s-2.625,4.5-4.938,4.938 c-2.313,0.438-5.188,0.25-7.375,0.438c-2.187,0.188-5.5,1.25-7.625,1.813s-7.125,0.75-8.813,0.313s-3.125-1.688-5.75-1.875 s-5.063-0.25-7-0.25s-4.875-1.313-6.938-2.75c-2.063-1.438-5-6.375-5.75-8.313s-3.563-4.188-5.375-4.813 c-1.813-0.625-5.813-0.313-7.5,0.313c-1.688,0.626-7.063,5.875-8.625,8.125c-1.563,2.25-5.375,7-6.563,7.813 s-4.063,0.125-5.75,0.75c-1.688,0.625-1.375,2.563-4.125,3.25c-2.75,0.688-5.188,1.563-6.751,2.188s-2.313,2.375-1.688,4.188 s5.313,3.313,6.813,3.813s7.938-0.063,9.438,0.688s0.375,4.688-0.375,6.188s-2.313,6.938-2.188,9.063s2.375,7.063,3.25,8.688 s1.375,5.313,1,6.625s-3.188,3.25-6.063,3.625s-8,0.063-11.5-0.063s-8.125-3.063-9.375-4.438s-2.75-7.813-3.5-9.813 s-3.063-4.938-4.25-6c-1.188-1.062-3.939-2.438-6.252-3c-2.313-0.562-11.25-3.063-15.063-3.75 c-3.813-0.688-9.625-1.188-11.688-1.313c-2.063-0.125-6.563-0.063-8.25,0c-1.687,0.063-5.438,1.125-6.563,2.75 s-0.875,4.5-1.25,6.125s-1.938,4.063-2.688,5.813s-1.563,11.938-1.375,14.313c0.188,2.375-0.813,9.438-1.938,11.813 s-2.75,3.875-4.438,5.313c-1.521,1.292-4.679,2.522-7.023,2.941c-0.004,0-0.006-0.001-0.01-0.001 c-0.313-0.021-0.761,0.116-0.761,0.116c-2.375,0.25-23.671-0.688-26.688-0.74c-3.021-0.057-6.642,0.934-8.011,1.812 c-1.371,0.878-2.689,6.42-3.623,7.686c-0.935,1.263-2.578,3.072-5.871,3.236c-3.291,0.166-5.213-1.813-7.521-3.127 c-2.307-1.317-3.458-4.279-3.128-7.301c0.329-3.02,2.359-7.519,3.517-10.041c1.149-2.521,1.263-5.813,0.328-7.57 c-0.937-1.758-4.009-5.764-4.889-8.504c-0.877-2.743-1.532-9.713-1.975-11.414c-0.442-1.701-1.979-3.187-3.729-3.95 c-1.757-0.771-9-0.548-10.371-0.273c-1.373,0.273-3.186,1.098-4.723,2.415c-1.534,1.316-7.239,8.12-8.174,9.384 c-0.938,1.265-2.804,5.65-3.896,7.354c-1.099,1.703-4.556,3.842-6.971,4.28c-2.413,0.438-4.5-2.03-5.485-4.229 c-0.983-2.195-1.043-8.011-0.771-11.304c0.271-3.293,2.306-8.176,4.17-9.877c1.863-1.7,8.507-4.719,9.934-6.475 c1.431-1.759,0.554-3.68,1.537-6.424c0.985-2.742,6.914-9.603,8.614-12.232c1.697-2.633,9.219-13.771,9.934-15.639 c0.715-1.867,0.438-6.258-0.271-8.064c-0.713-1.811-1.594-7.683-1.594-9.877c0-2.195,1.207-5.543,2.963-7.134 c1.756-1.591,6.258-4.773,8.614-6.091c2.354-1.316,5.598-3.127,4.771-4.557c-0.822-1.428-4.558-3.512-6.421-4.227 c-1.862-0.716-7.188-1.48-8.729-1.207c-1.535,0.271-2.854,2.356-4.442,2.905c-1.591,0.552-3.021-0.877-4.559-2.414 c-1.534-1.533-2.797-5.483-2.577-7.298c0.225-1.812,2.854-8.778,3.786-11.139c0.937-2.36,3.785-10.535,4.007-12.896 c0.224-2.361-0.491-7.3-1.479-8.67c-0.985-1.371-3.846-2.636-5.871-3.071c-2.03-0.438-11.637-1.263-14.319-1.316 c-2.688-0.054-5.156-1.043-6.641-2.47c-1.479-1.426-3.563-5.871-4.5-5.213c-0.938,0.659-2.357,6.42-2.963,7.957 c-0.604,1.535-3.129,3.127-5.651,3.95c-2.521,0.823-7.57,0.713-9.221,0c-1.646-0.713-4.498-4.007-5.979-4.556 c-1.479-0.55-4.604-0.657-6.146-0.716c-1.536-0.056-5.541,1.151-7.354,2.086c-1.813,0.937-4.007,4.607-4.884,6.642 c-0.881,2.029-1.151,4.441-2.146,5.762c-0.985,1.316-4.883,3.785-5.979,4.279c-1.099,0.49-3.896,2.688-4.99,4.392 c-1.101,1.702-2.31,5.269-3.295,7.077c-0.982,1.812-3.619,8.285-5.269,8.285c-1.646,0-2.908-1.535-3.845-3.021 c-0.934-1.483-1.862-6.091-3.018-7.298c-1.156-1.207-3.951,0.328-4.992,1.149c-1.043,0.822-4.772,4.608-5.707,4.721 c-0.937,0.107-1.758-0.387-2.635-1.979c-0.882-1.593-1.316-9.712-1.535-11.193c-0.224-1.479-2.086-3.512-3.729-4.39 c-1.646-0.878-6.035-0.438-8.67-0.329c-2.636,0.11-5.377,1.646-6.478,2.963c-1.101,1.316-0.771,5.542-1.646,7.188 c-0.877,1.646-1.646,2.414-3.072,3.347c-1.426,0.935-4.276,3.786-5.104,4.993c-0.823,1.207-0.819,3.347-0.877,5.433 c-0.057,2.084,0.658,6.857,0.107,8.177c-0.548,1.317-1.1,1.48-3.4,1.7c-2.307,0.219-3.784-0.22-5.6-1.098 c-1.813-0.878-2.962-2.415-2.688-4.006c0.273-1.594,3.847-4.887,3.787-7.243c-0.06-2.358-1.862-3.622-3.787-3.896 c-1.92-0.271-5.926,1.701-8.176,1.865c-2.248,0.166-7.408,0.164-9.328,0.164c-1.922,0-4.894,0.566-4.894,0.566 c-1.188,1.875-2.625,5.625-2.688,6.75c-0.063,1.125-0.25,4.188-2.063,5.313c-1.813,1.125-4.604,4.729-5.521,6.646 c-0.918,1.918-0.668,5-3.25,6c-2.584,1-7.668-0.25-10.002-0.582c-2.334-0.334-9.666-2.5-11.25-2.918 c-1.584-0.416-3.25-0.666-5.25-0.166s-5.666,3.166-7.75,4.666s-4.166,6.25-3.166,7.084s4.584-0.416,6.25-1.416 c1.668-1,5.084-2.084,5.666-0.668c0.584,1.416-1.416,3.918-2,5.584c-0.584,1.668,1,5.916,1.668,7.084 c0.666,1.166,1.082,5-0.168,6.166c-1.25,1.168-4.416,1.25-6.666,1.084c-2.25-0.168-5.75-1.834-7.416-2.25 c-1.668-0.416-4.5-0.75-6.5-0.668c-2,0.084-5.668,0.084-6.918-0.75c-1.25-0.832-3.25-3.666-4.166-4.916s-2.166-2.334-3.084-2.166 c-0.916,0.166-1.75,1.166-2.166,3.082c-0.416,1.918-0.666,5.084-1.25,6.5c-0.582,1.418-1.666,2.25-2.334,3.668 c-0.666,1.416-1.082,12.416-1.166,14.25c-0.082,1.832-1.916,4.5-3.334,4.5c-1.416,0-2.5-1.668-3-3.084s-1.666-6.416-3.082-7.916 c-1.418-1.5-4-1.75-5.666-1.834c-1.666-0.082-5.25,0.084-6.668-0.584c-1.416-0.666-3.832-4.5-4.832-5.5s-2.5-2.75-3.918-2.416 c-1.416,0.334-4.5,5-5.332,6.25c-0.834,1.25-1.5,1.584-2.918,1.416c-1.416-0.166-2.666-1.666-3.666-1.666 s-3.25,2.916-3.666,3.584c-0.416,0.666-3.418,7.5-3.25,9.666c0.166,2.166,0.832,9.084-0.418,10.334s-2.5,1.166-4.334,1.582 c-1.834,0.418-6.75,2.75-8.5,3.418c-1.75,0.666-5.5,2.166-7.75,3.25s-6,2.916-7.916,3.416s-3.416-1.416-4.416-2.75 s-2.669-5.666-4.334-6.166c-1.666-0.5-3.584,1-5.334,1.25s-2.582-0.418-3.5-1.75c-0.916-1.334-1.5-8.5-1.832-9.334 c-0.334-0.834-0.918-0.916-2.5-0.25c-1.584,0.666-6.5,6.75-7.834,7.5c-1.332,0.75-5.5,0-6.334-1.334 c-0.834-1.332-4.166-8.5-5.5-10.332c-1.334-1.834-4.75-5.918-6.166-7.418s-2.584-3.332-3.416-5.666 c-0.834-2.334-2.334-5.666-3.75-7.666c-1.418-2-4.75-4.25-6.5-5.084s-5.084-1-8.25-0.916c-3.168,0.084-6,2.332-8.25,3.832 s-5,5.918-5.584,8.084c-0.582,2.166-0.166,15.916,0,17.916c0.168,2-2.938,4.604-4,4.543c-1.063-0.063-3.688,0.188-4.25,1.188 c-0.563,1-0.813,2.938-0.813,4.125c0,1.188-1.375,2.688-3.375,3.125c-2,0.438-8.813-0.25-10.875-0.75 c-2.062-0.5-5.375-0.188-7.625-0.125s-8.063,4.438-10.063,5.813s-14.25,10.875-15.813,12.188c-1.563,1.313-6.625,3.5-9.625,3.75 s-11.438-1.688-12.625-1.625c-1.187,0.063-1.75,1.688-1.938,3.188c-0.188,1.5,2.25,3.938,2.688,5.563 c0.438,1.625,0.813,10.125-0.563,11.813s-5.25,4.438-6.625,4.813s-4.938,0.688-6.125,1.375c-1.188,0.687-2.5,4.625-4.313,5.625 c-1.813,1-3.625,1-5.75,0s-6.75-5.688-8.875-5.75c-2.125-0.063-8.188,1.688-10.813,1s-7.688-7.375-9.625-8.25 c-1.938-0.875-4.063,0-5.563-0.75s-1.688-1.75-3.375-2.813c-1.687-1.063-7.5-0.5-9.063-1c-1.563-0.5-3.188-1.75-3.75-3.5 c-0.563-1.75-2.063-7.125-3.313-8.5s-5.5-1.813-7.375-1.813s-8.5,0.125-10-1s-2.188-4.375-3.125-6 c-0.937-1.625-2.313-1.438-4.438-0.688s-3,4.375-4.75,5.5s-2.5,0.625-4.875,1.375s-2.625,3.375-4.375,6.25s-2.625,8.5-5.375,9.5 s-9,1.5-11.125,3s-3.875,5.625-4.875,6.875s-1.875,1.625-4.375,2.375s-4.875,3.5-8,3.25s-3-3.875-4.125-5 s-2.75-0.375-4.375-0.891c-1.625-0.514-3.5-3.859-4.875-4.609s-3.125-0.625-5.625,0s-6.302,4.609-6.302,4.609l0.075,2.823 c0.364,1.979,4.37,12.388,5.255,14.416c0.885,2.029,6.244,11.761,7.753,13.112c1.509,1.351,4.163,4.684,6.086,4.523 c1.927-0.155,2.705-2.496,3.02-3.482c0.313-0.989,2.813-5.205,3.594-5.936c0.777-0.729,4.73-1.718,6.813-1.041 c2.081,0.677,7.854,2.604,9.989,3.068c2.135,0.469,8.013,1.041,10.095,0.885c2.082-0.155,6.088,0.104,7.6,0.313 c1.51,0.209,5.408,2.551,6.449,4.424c1.041,1.873,4.008,9.003,4.838,10.72c0.834,1.72,3.279,4.996,3.438,6.353 c0.152,1.354-3.692,4.685-4.479,5.981c-0.78,1.3-0.677,4.634,0,5.673c0.677,1.041,6.559,2.86,7.752,3.645 c1.196,0.781,2.968,1.927,4.526,1.873c1.56-0.053,2.136-2.237,3.692-2.706c1.563-0.468,2.341-0.47,2.858,0.624 c0.521,1.093,2.657,4.997,3.854,5.937c1.194,0.938,4.008,1.718,5.825,1.667c1.819-0.057,5.2-1.354,5.671-2.292 c0.473-0.938,0.363-5.311,1.307-5.827c0.937-0.521,2.854-1.146,4.006-0.416c1.146,0.729,4.431,2.76,6.041,3.487 c1.611,0.729,4.269,1.563,6.188,1.611c1.93,0.053,5.201,0.469,6.449,0.832c1.25,0.363,3.543,5.153,5.155,5.414 c1.61,0.262,4.213-1.511,5.103-2.604c0.889-1.094,6.24-5.358,7.129-6.146c0.889-0.78,3.897-1.927,4.992-1.979 c1.098-0.052,2.604,1.25,2.653,2.446c0.052,1.193,0.261,4.893,0.677,5.564c0.418,0.676,4.639,2.551,5.569,3.539 c0.938,0.988,1.819,3.383,1.612,5.146c-0.209,1.771-1.821,4.221-1.354,5.205c0.469,0.987,3.693,1.403,5.412,1.194 c1.718-0.207,4.268-1.041,4.994-0.104c0.729,0.938,0.153,4.998-0.416,6.563c-0.572,1.563-2.76,6.974-3.07,8.74 c-0.313,1.771-1.771,10.825-2.084,12.753c-0.313,1.927-1.092,8.527-1.508,10.042c-0.416,1.512-6.506,8.948-8.019,9.682 c-1.512,0.729-3.593,0.778-4.786-0.313c-1.193-1.099-3.854-2.707-5.148-3.539s-5.203-1.664-6.867-1.722 c-1.666-0.053-9.631,4.318-11.033,5.152c-1.401,0.832-7.646,2.813-8.946,3.537c-1.306,0.729-4.578,3.385-5.259,4.732 c-0.68,1.354-4.428,7.909-5.885,9.423c-1.457,1.511-5.463,5.466-6.449,7.021c-0.987,1.563-2.703,4.526-3.483,4.787 c-0.781,0.262-2.479-1.604-2.479-1.604c2.834,6.5,4.666,7.001,5.834,11.834c1.166,4.833,14.5-0.833,28.5,15.5 c15.375,9.458,14-2.335,24.166-2.501s18.5,5.5,16.334,13c-1.834,3.501,12.166,3.001,18,1.501 c5.832-1.5,13.998-16.334,26.166,2.833c7.834,19.333-0.834,23.832-11.834,30.166s-4.832,19.334,4.5,26.667 c9.334,7.333,2.834,20.5,5.668,34c4.166,8.333,6.166,4.167,15.166,4c6.166,0.667-1.834,4,11.666,5 c6.834,3.333-1.166,6.166,1.169,10.833c2.331,4.667,10.831,2.169,11.831,8.834c4.669,4.5,10.169-0.501,14.669,2.333 s5.166,2.499,12.166,11.333c0,0,7.5-4.166,15.166,2.667c13.294,2.292,12.166-5,27.334-7c12,1.334,10.084,6.667,20,14.334 c0,0,4.084-2.917,4.334-7.167s5.25,1.75,3.5,9l13.5,1c0,0,2.75-6.5,2.75-9s4.25-0.5,2.75,11c0.983,4.145,8.5-4,10-8.75 s12-0.75,14,2s6.75-3.5,3.75-7.5s9.25-14-6.25-20.75c0,0,6.5,0.5,8.25-6.25s4,4.5,10.25,5.25c2.645,0.995,0.25,4.25-2,5.25 s0.5,7,0.5,7s8.5-10.75,6.25-2c-2,6.5,2.75,3,5.5,6s6.081,7.584,9.416,10.084c3.334,2.5,4.003-10.833,1.834-18.5 c-2-4.667,9.166,2,9.834,3c0.666,1-6.334,2.333-3.5,11.833c2.94,5.124,5,3,7.166,3c2.169,0,9-3.166,13.834,4.334 c3.692,4.398,4.166,1.334,6.166,12c3.334,4.166,7.503,3,9.669,2.833s19.997-1,19.997-1s3-3.833,6-2s6.666-10.834,4.5-14.167 s-10.334-7.832-3-7.666c0,0,5.666-5.167,9-9.167c1.669-2.167,2,3.001-0.331,4.167c-2.334,1.166-1.834,5.166-0.169,6.166 c1.669,1-2,8.167,0.169,10.667c2.166,2.5,6.166-8.001,8.166-2.167s-6,7.167-1.666,10.167c4.331,3,4.5-0.333,5.5,2.5 s3.331-5.334,1.831-9.667c0,0,0.003-0.014,0.006-0.021c0.004,0.01,0.002,0.014,0.007,0.021 C926.214,575.36,926.305,574.969,926.458,574.406c-0.004,0.001-0.008,0-0.013,0.001"></path></g><path id="台湾没有啊" fill="none" stroke="#D9281C" stroke-miterlimit="10" d="M2092.063,104.191c0,0-14.25,1-16,15.25 c-1.613,5.934-9,5-14,7c0,0-23.75,9.25-25.25,26.75c3.25,11,3.25,11-4.75,16s-6,3.25-6.75,8.25s-6.75,9-9.25,10.5 s-2.25,6.5-2.5,8.5s-5.5,8.25-7.5,16.75s-5.25,9.25-7,11.25s0,8.25,0,10.25s-6.5,5.75-8.5,14.25s-4.5,10.584-9.5,16.75 c-5,6.168-1.998,10,0.668,10.834s-6.838,2.832-7.502,6.332c-0.666,3.5-1.166,7.002-6,9.834c-1.943,2.039-0.666,8.333,0,11.167 c0.668,2.834,3.5,7.334,1.168,13.168c-0.479,4.104,1.832,5,3.332,8.666s0.168,9-1.666,12.334c-1.834,3.332-4.334,10.832-2.666,14 c1.666,3.166-0.898,5.166-1.199,6.666c-0.303,1.5,0.197,7,4.031,7.666c3.834,0.668,6.834,0.834,7,7.334 c0.5,5.334,5,7.5,6.168,8.834c1.166,1.334,0.998,4.832,0.832,8c-0.166,3.166,5.834,7.334,8.168,10.166 c2.332,2.834,2.998,8.332,3.832,11.166s6.334,5.834,9.5,7.168c3.168,1.332,9,2.666,17,8.332c8,5.668,6.668,4.502,9.334,8.834 c2.666,4.334,3.5,4.5,6.334,5.834c2.832,1.332,1.666,5.166,1.332,7.5c-0.332,2.332,0.168,5,1.168,5s0.5,5.666-0.334,6.832 c-0.834,1.168,0.832,6.668,2.666,7.668s0.834,6.666,0.668,7.332c-0.168,0.668,4.166,2.334,6.332-1.5 c2.168-3.832,4.5-0.289,6,2.438c1.5,2.729,3.334-5.438,2.334-9.771c-1-4.334,4.332-4,4.666-7.334s0.834-21.332-4.332-26 l-0.334-5.666c0,0,5.166-7.834,5.166-10.168c0-2.332-4.164-12.832,11.502-31.666c0,0,5.832-11.998,9.498-14.332c0,0,0-4.5,5-8.168 l-0.084-2.998c0,0,4.666-3.334,5.084-5.418c0.416-2.082,0.584-8.832,0.584-8.832s4.416-4.166,5.582-7.5 c1.168-3.334-1.332-10.502,5.418-30.502c2.963-19.817-0.25-23.25,3.5-38.5c0.379-15.211-1.25-13.5,0-20.75s1-12-2-15 c-0.695-4.724,0.082-5.166,0.916-8.166s9-1.5,13.168-13.834c4.166-12.332,2-12.666,6.5-19.666s0.166-22.332-7.334-29.666 c-1.334-3.027-1.166-8.834,0-11.5c1.166-2.668,9.834-19.334,5.5-21.668c-4.334-2.332,5-6-0.25-9.75s-8.75-4-13.5-3.5 s-6-3.5-8.25-3.5s-6-1.25-7.75-1.25S2098.063,106.691,2092.063,104.191z"></path><path id="mapid-380000-outline" fill="none" stroke="#D9281C" stroke-miterlimit="10" d="M858.05,786.442c0,0-13.75,5-22.25,15.5 s-10.75,8.75-15,9.25s-12.75,3.5-9.5,15s-0.5,10.5-4.5,11.5s1.5,5.75,3,13.25c2,9.75-4,11.25-1.5,21.25s11.5,6.75,7.75,18 s-0.75,17.5,7.5,17s9,3.5,10,5.5s9.25-1,11.75,5.75s14.25-3.75,18.75,6.75s9.25-3.25,20,2.25s11.5,0.5,16.5,7.75 c2.961,2.523,5-3.75,7.25,0s5.75,12.482,8.75,0.615c1.898-5.588,3.75-3.865,10.75-9.365s-1.25-15.5,13-9.75 c7.594,0.471,16.5-11.75,15-3.25c-0.113,5.906,2,5.5,5.5,4.25s6.25-5.5,7.25-7.25s4.5-20.25,26.5-22.75 c12.813-2.896,12-6.5,14-11.5c1.797-2.586,6-3,7-3.5s0.25-10.25-4.25-7.5c-2.188,2.438-0.5,5.5-3.75,5.75s-5.75-0.75-1-5 s5.25-3.75,5.75-7s0-10.75,0-10.75s7.25-3,5.25-12.5c-0.443-2.566,2-4.5,3.001-7c1-2.5,3.5-10.5,8.75-11.75s-1.25-3.5,5.5-8.75 c6.751-5.25-6.25-0.75,9.001-11.25c1-5.75,1-5.75-1.75-8.25c-2.751-2.5-4.001-4,4.5-5.5c8.5-1.5,2.519,0.383,0,4 c-1.01,3.473,0.168,6.168,1.168,6.668s9.666-4.5,12-8.5c1.645-1.795,4.208-0.793,6.333-0.793s-1.625-6.625-3.875-8.625 c-2.251-2,0.125-8.25-4.251-20c-4.375-11.75-4.625-15.25-14.375-13c-9.751,2.25-12.751-6.5-13.751-13.25 c-0.25-3.75-5.25,1.75-5.75,3.25s-13.251,5.25-15.501,7.5s-15.75-0.75-21.5-0.5s-10.5,2.5-13.75,5.25s-3,1.75-8.25,2.5 s-8.25,3.25-10.75,6s1.5-13.5-15.75-3c-3.5,0-8.75-2.25-11-1.75s-12.5-8.75-21.75,3.25c2,10-1.75,9.75-5.5,9.75s-0.5-5.25-11.75-4 c-7.049-0.891-11.5-3.25-18,3c-7.109,6.299-4.5,5.75-4.75,8.25s6.25,3.5,10.25,0.75s7.25-2.5,2.75,3.5s-6.75-3-15.5,10 C860.699,787.227,860.944,785.219,858.05,786.442z"></path><path id="mapid-370000-outline" fill="none" stroke="#D9281C" stroke-miterlimit="10" d="M1154.183,228.508 c-2.375,0.25-23.671-0.688-26.688-0.742c-3.02-0.055-6.641,0.935-8.011,1.813c-1.371,0.877-2.688,6.42-3.623,7.685 c-0.935,1.263-2.578,3.071-5.871,3.235c-3.291,0.166-5.213-1.813-7.521-3.127c-2.306-1.316-3.458-4.278-3.128-7.299 c0.33-3.021,2.357-7.521,3.513-10.041c1.154-2.522,1.265-5.815,0.33-7.572c-0.934-1.756-4.007-5.762-4.886-8.504 c-0.877-2.743-1.535-9.713-1.978-11.414c-0.441-1.701-1.979-3.185-3.729-3.95c-1.756-0.769-9-0.548-10.371-0.273 c-1.373,0.273-3.188,1.1-4.722,2.416c-1.535,1.316-7.24,8.119-8.178,9.385c-0.936,1.264-2.801,5.648-3.896,7.354 c-1.099,1.704-4.556,3.843-6.971,4.279c-2.414,0.438-4.5-2.029-5.485-4.229c-0.988-2.193-1.043-8.011-0.771-11.304 c0.271-3.293,2.306-8.175,4.17-9.876c1.865-1.701,8.508-4.719,9.935-6.476c1.431-1.758,0.554-3.678,1.537-6.422 c0.984-2.743,6.914-9.604,8.614-12.233c1.7-2.632,9.219-13.771,9.934-15.64c0.714-1.866,0.438-6.256-0.271-8.064 c-0.713-1.811-1.595-7.683-1.595-9.877c0-2.194,1.207-5.542,2.964-7.134c1.756-1.591,6.258-4.773,8.613-6.091 c2.357-1.316,5.599-3.127,4.771-4.555c-0.825-1.429-4.558-3.514-6.421-4.228c-1.864-0.715-7.188-1.479-8.729-1.207 c-1.537,0.271-2.854,2.355-4.438,2.906c-1.596,0.551-3.022-0.877-4.563-2.414c-1.531-1.535-2.797-5.486-2.574-7.299 c0.224-1.813,2.854-8.777,3.786-11.14c0.936-2.36,3.783-10.534,4.007-12.896c0.223-2.362-0.492-7.299-1.479-8.67 c-0.985-1.371-3.843-2.635-5.871-3.071c-2.03-0.438-11.634-1.263-14.318-1.316c-2.688-0.054-5.157-1.043-6.642-2.469 c-1.481-1.426-3.563-5.872-4.5-5.213c-0.938,0.658-2.356,6.42-2.963,7.956s-3.129,3.128-5.651,3.95 c-2.521,0.823-7.57,0.713-9.221,0c-1.646-0.713-4.498-4.007-5.979-4.556c-1.48-0.549-4.607-0.657-6.146-0.715 c-1.537-0.057-5.541,1.151-7.354,2.086c-1.813,0.937-4.01,4.606-4.889,6.642c-0.879,2.028-1.146,4.442-2.141,5.762 c-0.988,1.315-4.884,3.785-5.981,4.279c-1.098,0.491-3.895,2.688-4.986,4.391c-1.104,1.702-2.313,5.27-3.293,7.078 c-0.984,1.812-3.621,8.285-5.271,8.285c-1.646,0-2.908-1.536-3.842-3.021c-0.937-1.481-1.865-6.092-3.021-7.299 c-1.15-1.207-3.949,0.329-4.99,1.151c-1.045,0.821-4.774,4.607-5.707,4.72c-0.938,0.107-1.76-0.386-2.637-1.979 c-0.881-1.593-1.313-9.711-1.533-11.191c-0.225-1.479-2.087-3.513-3.731-4.39c-1.646-0.879-6.035-0.438-8.67-0.33 c-2.633,0.109-5.377,1.646-6.477,2.963c-1.101,1.316-0.771,5.543-1.646,7.188c-0.876,1.645-1.646,2.414-3.072,3.347 c-1.426,0.935-4.272,3.786-5.104,4.993c-0.824,1.207-0.822,3.347-0.877,5.432c-0.06,2.085,0.653,6.857,0.104,8.178 c-0.548,1.317-1.099,1.48-3.399,1.699c-2.308,0.221-3.783-0.219-5.601-1.098c-1.813-0.877-2.961-2.414-2.688-4.006 c0.271-1.592,3.842-4.885,3.787-7.242c-0.061-2.357-1.867-3.623-3.787-3.896c-1.92-0.272-5.926,1.7-8.176,1.865 c-2.248,0.165-7.408,0.164-9.328,0.164c-1.922,0-4.896,0.565-4.896,0.565c-1.188,1.875-2.625,5.625-2.688,6.75 c-0.063,1.125-0.25,4.188-2.063,5.313c-1.813,1.125-4.604,4.729-5.521,6.646c-0.918,1.918-0.668,5-3.25,6 c-2.584,1-7.668-0.25-10.002-0.582c-2.334-0.334-9.666-2.5-11.25-2.918c-1.584-0.416-3.25-0.666-5.25-0.166 s-5.666,3.166-7.75,4.666s-4.166,6.25-3.166,7.084s4.584-0.416,6.25-1.416c1.668-1,5.084-2.084,5.666-0.668 c0.584,1.416-1.416,3.918-2,5.584c-0.584,1.668,1,5.916,1.668,7.084c0.666,1.166,1.082,5-0.168,6.166 c-1.25,1.168-4.416,1.25-6.666,1.084c-2.25-0.168-5.75-1.834-7.416-2.25c-1.668-0.416-4.5-0.75-6.5-0.668 c-2,0.084-5.668,0.084-6.918-0.75c-1.25-0.832-3.25-3.666-4.166-4.916s-2.166-2.334-3.084-2.166 c-0.916,0.166-1.75,1.166-2.166,3.082c-0.416,1.918-0.666,5.084-1.25,6.5c-0.582,1.418-1.666,2.25-2.334,3.668 c-0.666,1.416-1.082,12.416-1.166,14.25c-0.082,1.832-1.916,4.5-3.334,4.5c-1.416,0-2.5-1.668-3-3.084s-1.666-6.416-3.082-7.916 c-1.418-1.5-4-1.75-5.666-1.834c-1.666-0.082-5.25,0.084-6.668-0.584c-1.416-0.666-3.832-4.5-4.832-5.5s-2.5-2.75-3.918-2.416 c-1.416,0.334-4.5,5-5.332,6.25c-0.834,1.25-1.5,1.584-2.918,1.416c-1.416-0.166-2.666-1.666-3.666-1.666s-3.25,2.916-3.666,3.584 c-0.416,0.666-3.419,7.5-3.25,9.666c0.166,2.166,0.831,9.084-0.419,10.334s-2.5,1.166-4.334,1.582 c-1.834,0.418-6.75,2.75-8.5,3.418c-1.75,0.666-5.5,2.166-7.75,3.25s-6,2.916-7.916,3.416s-3.416-1.416-4.416-2.75 s-2.669-5.666-4.334-6.166c-1.666-0.5-3.584,1-5.334,1.25s-2.581-0.418-3.5-1.75c-0.916-1.334-1.5-8.5-1.831-9.334 c-0.334-0.834-0.919-0.916-2.5-0.25c-1.584,0.666-6.5,6.75-7.834,7.5c-1.332,0.75-5.5,0-6.334-1.334 c-0.834-1.332-4.166-8.5-5.5-10.332c-1.334-1.834-4.75-5.918-6.166-7.418s-2.584-3.332-3.416-5.666 c-0.834-2.334-2.334-5.666-3.75-7.666c-1.419-2-4.75-4.25-6.5-5.084s-5.084-1-8.25-0.916c-3.169,0.084-6,2.332-8.25,3.832 s-5,5.918-5.584,8.084c-0.582,2.166-0.166,15.916,0,17.916c0.168,2-2.938,4.604-4,4.543c-1.063-0.063-3.688,0.188-4.25,1.188 c-0.563,1-0.813,2.938-0.813,4.125c0,1.188-1.375,2.688-3.375,3.125c-2,0.438-8.813-0.25-10.875-0.75s-5.375-0.188-7.625-0.125 s-8.063,4.438-10.063,5.813s-14.25,10.875-15.813,12.188s-6.625,3.5-9.625,3.75s-11.438-1.688-12.625-1.625 s-1.75,1.688-1.938,3.188c-0.188,1.5,2.25,3.938,2.688,5.563s0.813,10.125-0.563,11.813c-1.377,1.688-5.25,4.438-6.625,4.813 s-4.938,0.688-6.125,1.375c-1.188,0.688-2.5,4.625-4.313,5.625s-3.625,1-5.75,0s-6.75-5.688-8.875-5.75s-8.188,1.688-10.813,1 s-7.688-7.375-9.625-8.25s-4.063,0-5.563-0.75s-1.688-1.75-3.375-2.813s-7.5-0.5-9.063-1c-1.563-0.5-3.188-1.75-3.75-3.5 c-0.563-1.75-2.063-7.125-3.313-8.5s-5.5-1.813-7.375-1.813s-8.5,0.125-10-1s-2.188-4.375-3.125-6s-2.313-1.438-4.438-0.688 s-3,4.375-4.75,5.5s-2.5,0.625-4.875,1.375s-2.625,3.375-4.375,6.25s-2.625,8.5-5.375,9.5s-9,1.5-11.125,3 c-2.123,1.5-3.873,5.625-4.873,6.875s-1.875,1.625-4.375,2.375s-4.875,3.5-8,3.25s-3-3.875-4.125-5s-2.75-0.375-4.375-0.89 c-1.625-0.514-3.5-3.86-4.875-4.61s-3.125-0.625-5.625,0s-6.302,4.61-6.302,4.61l0.072,2.823 c0.364,1.979,4.371,12.388,5.258,14.416c0.885,2.029,6.242,11.761,7.752,13.111c1.51,1.353,4.164,4.685,6.087,4.524 c1.929-0.154,2.707-2.496,3.021-3.483c0.313-0.988,2.813-5.203,3.592-5.935c0.778-0.729,4.732-1.718,6.813-1.041 c2.079,0.677,7.854,2.603,9.987,3.068c2.136,0.469,8.016,1.041,10.098,0.885c2.082-0.155,6.088,0.104,7.598,0.313 c1.508,0.209,5.41,2.551,6.451,4.424s4.006,9.003,4.838,10.72c0.834,1.719,3.276,4.996,3.436,6.352 c0.156,1.354-3.688,4.686-4.475,5.982c-0.783,1.299-0.679,4.633,0,5.672c0.676,1.041,6.557,2.861,7.752,3.646 c1.194,0.78,2.967,1.927,4.524,1.873c1.562-0.054,2.137-2.237,3.691-2.706c1.563-0.469,2.343-0.469,2.858,0.624 c0.521,1.093,2.657,4.997,3.854,5.937c1.197,0.938,4.009,1.718,5.828,1.664c1.819-0.053,5.2-1.354,5.67-2.289 c0.472-0.938,0.364-5.311,1.306-5.827c0.937-0.521,2.855-1.146,4.006-0.416c1.146,0.73,4.431,2.76,6.041,3.487 c1.611,0.729,4.27,1.563,6.188,1.611c1.929,0.053,5.202,0.469,6.45,0.832c1.25,0.363,3.543,5.153,5.154,5.414 c1.607,0.266,4.213-1.511,5.103-2.604c0.888-1.096,6.241-5.359,7.13-6.143c0.887-0.779,3.896-1.927,4.992-1.979 c1.098-0.052,2.604,1.25,2.652,2.446c0.053,1.193,0.262,4.893,0.678,5.564c0.418,0.676,4.636,2.551,5.568,3.539 c0.938,0.988,1.816,3.383,1.609,5.15c-0.209,1.77-1.818,4.217-1.354,5.203c0.468,0.983,3.69,1.399,5.412,1.19 c1.718-0.207,4.267-1.041,4.992-0.104c0.729,0.938,0.152,4.998-0.416,6.56c-0.57,1.563-2.762,6.977-3.068,8.74 c-0.313,1.771-1.771,10.828-2.084,12.754c-0.313,1.926-1.093,8.531-1.509,10.041c-0.416,1.512-6.506,8.951-8.019,9.682 c-1.509,0.729-3.591,0.779-4.786-0.313c-1.193-1.094-3.854-2.706-5.148-3.538s-5.202-1.664-6.866-1.718 c-1.666-0.056-9.632,4.313-11.034,5.147c-1.401,0.832-7.646,2.813-8.947,3.537c-1.305,0.729-4.576,3.388-5.257,4.735 c-0.68,1.354-4.428,7.91-5.885,9.42c-1.457,1.511-5.463,5.466-6.45,7.025c-0.987,1.561-2.704,4.521-3.483,4.784 c-0.78,0.263-2.479-1.604-2.479-1.604c2.834,6.5,4.666,7.002,5.834,11.834c1.166,4.834,14.5-0.832,28.5,15.5 c15.375,9.459,14-2.334,24.166-2.5s18.5,5.5,16.334,13c-1.834,3.5,12.166,3,18,1.5c5.832-1.5,13.998-16.334,26.166,2.834 c7.834,19.332-0.834,23.832-11.834,30.166s-4.832,19.334,4.5,26.666c9.334,7.334,2.834,20.5,5.668,34 c4.166,8.334,6.166,4.168,15.166,4c6.166,0.668-1.834,4,11.666,5c6.834,3.334-1.166,6.166,1.168,10.834 c2.332,4.666,10.832,2.168,11.832,8.834c4.668,4.5,10.168-0.502,14.668,2.332s5.166,2.5,12.166,11.334c0,0,7.5-4.166,15.166,2.666 c13.293,2.293,12.166-5,27.334-7c12,1.334,10.084,6.668,20,14.334c0,0,4.084-2.916,4.334-7.166s5.25,1.75,3.5,9l13.5,1 c0,0,2.75-6.5,2.75-9s4.25-0.5,2.75,11c0.983,4.143,8.5-4,10-8.75s12-0.75,14,2s6.75-3.5,3.75-7.5s9.25-14-6.25-20.75 c0,0,6.5,0.5,8.25-6.25s4,4.5,10.25,5.25c2.645,0.996,0.25,4.25-2,5.25s0.5,7,0.5,7s8.5-10.75,6.25-2c-2,6.5,2.75,3,5.5,6 s6.082,7.584,9.416,10.084s4.002-10.834,1.834-18.5c-2-4.668,9.166,2,9.834,3c0.666,1-6.334,2.332-3.5,11.832 c2.94,5.125,5,3,7.166,3c2.168,0,9-3.166,13.834,4.334c3.692,4.397,4.166,1.334,6.166,12c3.334,4.166,7.502,3,9.668,2.834 c2.166-0.168,19.998-1,19.998-1s3-3.834,6-2c3,1.832,6.666-10.834,4.5-14.168c-2.166-3.332-10.334-7.832-3-7.666 c0,0,5.666-5.166,9-9.166c1.668-2.168,2,3-0.332,4.166c-2.334,1.166-1.834,5.166-0.168,6.166c1.668,1-2,8.168,0.168,10.668 c2.166,2.5,6.166-8.002,8.166-2.168s-6,7.168-1.666,10.168c4.332,3,4.5-0.334,5.5,2.5c1,2.832,3.332-5.334,1.832-9.668 c0,0,0.67-2.884,1.409-4.188c0.74-1.307,1.74-2.916,3.438-3.354c1.695-0.438,3.829-0.438,5.875-1.179 c2.045-0.735,3.829-1.649,5.521-3.047c1.697-1.395,3.182-2.825,3.482-4.438c0.303-1.607,0.649-3.696,0.735-5.179 c0.089-1.48,0.438-5.482,1.31-7.396c0.869-1.916,2.133-2.961,3.047-3.354c0.912-0.396,8.834,0.089,10.486-0.178 c1.651-0.264,3.959-1.088,5.004-2.396c1.045-1.309,4.311-2.045,5.612-2.134c1.308-0.088,7.832-0.22,9.054-0.264 c1.221-0.045,6.313,0.131,7.396,0.264c1.088,0.132,2.565,0.912,4.226,0.825c1.651-0.088,2.438-0.605,2.438-1.608 c0-1-1.871-3.438-2.31-4.091c-0.438-0.653-2.522-3.698-2.696-5.096c-0.175-1.396-0.306-7.227-0.22-8.612 c0.089-1.396-0.308-8.703-0.133-10.013c0.178-1.309,0.737-2.962,2.267-3.479c1.521-0.521,3.135-0.261,4.438,0.479 c1.309,0.734,6.44,3.222,7.88,3.65c1.438,0.438,3.825-0.086,5.312-1c1.479-0.914,2.873-1.916,4.049-1.916 c1.174,0,3.133,1.354,4.396,1.222c1.267-0.134,1.782-0.22,2.138-0.647c0.352-0.438,1.693-3.225,2.693-4.396 c1.002-1.176,2.565-3.222,4.004-3.918c1.438-0.689,3.396-1.563,4.354-2.35c0.957-0.784,1.959-2.004,1.914-2.83 c-0.043-0.825-3.307-4.698-4.135-5.612c-0.826-0.913-1.826-4.179-1.914-5.565c-0.088-1.396-0.783-4.921-0.309-5.965 c0.479-1.045,1.479-1.736,2.694-1.824c1.222-0.086,2.265-0.607,3.136-1.311c0.87-0.691,1.18-2.134,1.396-3.222 s0.479-5.091,1.306-5.787c0.827-0.694,3.963-1.479,5.702-1.563c1.737-0.087,3.396-0.438,4.438-1 c1.045-0.564,4.567-3.049,6.396-3.523c1.826-0.479,7.746-0.871,9.098-1.521c1.353-0.649,2.695-2.739,2.652-4.095 c-0.043-1.351,0.35-2.563,1.309-3.178c0.957-0.608,2.916-2.001,3.655-2.438c0.735-0.438,2.134-0.869,4.004-1.223 c1.869-0.35,5.268-1.871,6.521-2.521c1.27-0.652,5.396-3.918,6.314-5.008c0.912-1.088,4.742-5.74,5.479-7.228 c0.739-1.479,3.396-5.438,3.918-6.746c0.521-1.307,0.396-9.354,0.438-10.705c0.043-1.351-1.043-9.053-1.22-10.271 c-0.181-1.222-0.564-6.354-0.564-7.658s-0.35-6.877-0.261-8.396c0.087-1.521,0.175-10.88,0.521-12.271 c0.351-1.396,2.563-8.528,3.873-11.143c1.313-2.611,3.873-5.396,5.096-6.396c1.221-1.001,6.964-6.832,8.657-8.313 c1.695-1.479,6.052-4.964,7.141-6.439c1.089-1.479,1.781-5.268,1.824-6.745s0.13-5.744,0.13-6.832 c0-1.089,1.652-2.479,2.313-2.785c0.649-0.305,6.093-0.646,7.92-1.088c1.826-0.437,4.093-1.305,5.267-2.045 c1.18-0.736,4.917-4.091,5.876-5.479c0.957-1.396,0.608-2.521,1.396-3.61c0.785-1.088,3.566-3.829,4.223-4.961 c0.652-1.133-0.262-5.787-0.692-7.051c-0.437-1.268-3.093-9.008-3.396-10.054c-0.305-1.045-0.438-4.396,0.396-5.701 c0.828-1.305,2.088-3.354,3.312-4.267c1.22-0.914,5.091-3.004,6.354-3.741c1.264-0.738,4.438-3.352,5.354-4.785 c0.914-1.438,1.174-4.006,1-5.657c-0.175-1.652-1.563-10.531-2.045-12.402c-0.479-1.871-2.611-5.31-3.656-6.354 c-1.043-1.045-4.961-4.787-5.521-6.438c-0.563-1.652-1.002-5.312-0.31-6.181c0.693-0.868,3.697-4.09,4.611-5.354 c0.914-1.264,2.135-3.178,2.221-3.655C1155.312,228.16,1154.183,228.508,1154.183,228.508z"></path><path id="mapid-360000-outline" fill="none" stroke="#D9281C" stroke-miterlimit="10" d="M1154.183,228.508 c0,0,1.142-0.346,1.054,0.135c-0.089,0.479-1.308,2.396-2.222,3.656c-0.914,1.262-3.918,4.479-4.61,5.354 c-0.697,0.871-0.265,4.525,0.305,6.181c0.566,1.653,4.482,5.396,5.525,6.438c1.045,1.045,3.178,4.48,3.653,6.354 c0.479,1.873,1.871,10.748,2.046,12.401c0.176,1.652-0.087,4.222-1,5.657c-0.912,1.437-4.093,4.048-5.354,4.784 c-1.265,0.739-5.136,2.83-6.354,3.743c-1.228,0.914-2.479,2.959-3.313,4.265c-0.826,1.309-0.694,4.655-0.393,5.7 c0.303,1.045,2.959,8.791,3.395,10.054c0.439,1.265,1.354,5.918,0.697,7.052c-0.653,1.132-3.438,3.873-4.224,4.961 c-0.784,1.088-0.438,2.22-1.396,3.61c-0.959,1.395-4.699,4.739-5.876,5.479c-1.175,0.739-3.438,1.606-5.267,2.045 c-1.83,0.438-7.271,0.782-7.921,1.088c-0.653,0.31-2.313,1.696-2.313,2.784s-0.086,5.354-0.13,6.832 c-0.043,1.479-0.738,5.268-1.826,6.745c-1.089,1.479-5.438,4.962-7.139,6.438c-1.695,1.479-7.438,7.313-8.659,8.313 c-1.221,1.001-3.782,3.786-5.096,6.396c-1.308,2.61-3.521,9.748-3.873,11.146c-0.349,1.394-0.437,10.749-0.521,12.271 c-0.086,1.521,0.26,7.1,0.26,8.397s0.396,6.438,0.563,7.658c0.178,1.22,1.266,8.922,1.223,10.271 c-0.045,1.354,0.088,9.397-0.438,10.705c-0.521,1.313-3.181,5.271-3.918,6.746c-0.735,1.479-4.565,6.137-5.479,7.227 c-0.914,1.092-5.05,4.354-6.313,5.008c-1.265,0.648-4.652,2.177-6.521,2.521c-1.871,0.348-3.271,0.783-4.005,1.221 c-0.739,0.438-2.698,1.826-3.655,2.438c-0.959,0.604-1.354,1.827-1.308,3.178c0.043,1.354-1.313,3.438-2.653,4.091 c-1.35,0.653-7.271,1.045-9.096,1.522c-1.827,0.479-5.354,2.959-6.396,3.521c-1.043,0.563-2.695,0.914-4.438,1 c-1.742,0.091-4.874,0.871-5.701,1.566c-0.826,0.694-1.089,4.698-1.306,5.787c-0.225,1.088-0.521,2.521-1.396,3.222 c-0.871,0.696-1.914,1.22-3.133,1.31c-1.22,0.088-2.22,0.778-2.697,1.823c-0.478,1.043,0.22,4.569,0.309,5.964 c0.086,1.396,1.088,4.654,1.913,5.568s4.097,4.787,4.14,5.612c0.045,0.825-0.957,2.045-1.914,2.827 c-0.959,0.778-2.916,1.649-4.354,2.353c-1.438,0.697-3.002,2.742-4.006,3.917c-1,1.175-2.35,3.96-2.694,4.396 c-0.352,0.438-0.871,0.521-2.136,0.646c-1.263,0.132-3.222-1.22-4.396-1.22c-1.178,0-2.567,1.002-4.051,1.916 c-1.479,0.914-3.873,1.438-5.313,1c-1.438-0.438-6.57-2.916-7.877-3.654c-1.308-0.734-2.916-1.001-4.438-0.479 c-1.521,0.521-2.089,2.177-2.268,3.479c-0.174,1.31,0.223,8.616,0.134,10.01c-0.086,1.396,0.045,7.229,0.222,8.615 c0.174,1.394,2.264,4.438,2.694,5.094c0.438,0.651,2.312,3.095,2.312,4.095c0,1.002-0.783,1.521-2.438,1.605 c-1.649,0.089-3.135-0.691-4.223-0.825c-1.088-0.132-6.18-0.308-7.396-0.263c-1.22,0.043-7.744,0.177-9.054,0.263 c-1.309,0.091-4.565,0.825-5.612,2.137c-1.045,1.308-3.354,2.133-5.005,2.396c-1.649,0.268-9.569-0.22-10.483,0.174 c-0.914,0.396-2.178,1.438-3.047,3.354s-1.224,5.918-1.313,7.396c-0.086,1.479-0.436,3.568-0.731,5.184 c-0.312,1.605-1.785,3.047-3.481,4.438c-1.697,1.396-3.479,2.312-5.525,3.045c-2.045,0.739-4.178,0.74-5.875,1.183 c-1.691,0.437-2.691,2.045-3.438,3.352c-0.74,1.31-1.41,4.188-1.41,4.188c-1.166-3,6.002,1.169,5.834,9.334 c1.375,3.274,1.5,1.33,3.834,1.33c2.332,0,8,0,8,0s3.166,10.166-3.834,11.334c-7,1.166-11-2-11.5,6.166 c-0.5,8.17-0.166,14.17-0.166,14.17s-6.5-2.334-7.334,3.83c-0.834,6.17,4.832,4.5-0.834,14.834 c-2.117,4.021-2.166,5.5-0.832,11.834c1.332,6.332,0.332,6.332,0.332,6.332s6.834-1.332,5.668,5.668c0,0-1.334,7.332,3.332,7.666 c0,0,9.834-0.168,8.834,1.5c-1,1.666-12.834,2.666-13.666,4.166c-0.834,1.5,8.5,5.17,13,6c2.332,1-1.668,4.334-3.668,6.334 s2.334,3.834,4.5,4c2.168,0.166,3,3.332,4.168,3.166c1.166-0.166,3.334-5.818,4.166,0.01c0.834,5.824,10.834,3.99,11.334,7.49 s0.334,5.834-2.334,4.834c-2.666-1-15.332-11.5-17.5-4c-0.461,2.824,3.832,6.666,5.666,10c0,0,2,7.5,6.5,1.834 c3.285-2.209,11.668,0.166,16.668,4.166s8,1,10.5-1.666c2.5-2.668,10.998,0.166,10.998,0.166s3.334-8.666,13.168-5.666 c5.832,1.5,4.166-2.668,2.666-2.668s-1.166-2.166-1.166-2.166s7.332-7.334,5.832-17s-11.499-4.334-13.333-15.334 c0,0-6.002,1.668-7.834,1.168c-1.834-0.5-0.666-14.668-0.666-14.668s2.832-3.998,4.166,1.334c1.334,5.334,3.334,9,2.834-0.834 c-3.668-8-5.668-5.166-12.168-6.666s-12.166-1-13.5-16.5l7-2.834l-0.666-8.166c0,0,3-4.166,3.334,2 c1.166,2.666,7.666-5.166,12.5-6.666c4.832-1.5,4.332-8.834,2.332-14.668c-2-5.832,1-5.666,2.668-6.5 c1.666-0.832,0.166-8.166-0.334-8.332c-0.5-0.168,4-4,4.834,10.5c1.5,11.333,3.833,8.999,5.5,9.333 c1.666,0.334,10.832-2.167,8.5,2.668c-2.168,3.166-7.834-0.502-10.5,3.332c-2.5,2.834,5.832,1.5,6.832,6.668 c1,5.166,7-3.334,8-7.668c1-4.332,0.834-12.333,2.168-15.5c1.333-3.166,2.001,12.167,8.333-2.166 c6.479-8.621,9.834-7,13.669-6.334c0,0,4.666,3.168,12.5-6.5c4.832-3.832,1.666,7.334,12.501-3.332c0.332-3.5,4.334,2.166,6,3 c1.666,0.832,6.5-7.668,9.001-4.834c2.5,2.834,1,2.5,4,2s0,3.834,0,3.834s4.332,2.166,6.5-0.668c2.166-2.832-0.5-4.332-0.5-4.332 s0.832-7.666,8.332-4c2.001,3.832,1.167,2,1.501-2s3.834-5.002,4.5,2.666l9.668,0.666c0,0,3.498-8.834,8.333-1.666l2.834,0.334 c0,0-1.332-9.666,9.5-12c0,0,2.334-7.334,0.334-8.168c-2-0.832-11.166-2.166-6.834-4.332c4.334-2.168,4.834-2.168,6-3.334 s6.667,1.834,7.335,4.334c0.666,2.5-1.334,6.332,3.832,6.666c5.168,0.334,6.334,3,1,4.5c-5.332,1.5-3.666,6.332-7.666,8.5 c-4.001,2.166,5.5,0,8.5-2.166c3-2.168,7.832-4.668,12.167-3.834c1.771-0.199,0.5-4.334-2.001-4.834 c-2.5-0.5-6.166-1.666-4.166-6.5c2-4.832,3.666-10,1.666-12.166s4.667,2.166,6.835,3.166c2.166,1,13.5,1.5,15.834-0.832 c2.333-2.334,4.499-1.668,2.333,2c-2.167,3.666,3.666,7.166,4,10.666s13.668-3.166,17.335-6.166c3.665-3-0.332-9.834,0.334-13 c0.666-3.168-10.167-14.166-4.001-19.334c3.001-3,2.001,4.834,2.832,8.334c0.834,3.5,14.003-1.5,8.669,3 s-9.169,4.166-1.169,11.332c8,7.168,13.001,6.668,16.335,3.334s8.666-9.5,11.834-10.834c3.167-1.332,5.667-6.332,5.667-6.332 s5.832-3,5.666,5.5c2.994,5.563,5.834,4.832,8.5,4.666c2.669-0.166,7.834-8.5,7.834-8.5s-4.5-18.832,3.334-27.5 c2-6.834,0.332-11.668,0.332-13.334c0-1.664,3.002-7.164,2.834,5.336c0.255,3.778,5.834-0.5,8.334-4s4.166-1.336,1.666,2.164 s-6.166,6.916-6.666,9.166c-0.5,2.252-1.5,19,7,8.75c4.05-2.813,2.5,9,2,11.75s4.75-0.25,6-5.25s3.25-18.5,9-21.75 c0,0,4,6.235-2,11.75c-6.002,5.518,0.25,8.25-0.25,12s14,2,13.25-13.75c0,0,0.75-4.25,7.75-2.5s5.75-9.5,3.5-12.25s1.25-11.5-1-15 s-0.25-10,1.25-15.5s-14.25-16.75-21.25-20.75s7-0.5,19.5,9c7.25,4.5-1.75-10-7.5-11s-0.5-5.25,7.5,0.75 c4.75,3.75,2.5-7.75-4-9.75s-4.5-6.25-3.5-14.25s-7.084-5.414-1.75-9.416c5.332-4,3.166,17.5,8.832,14.166 c5.668-3.33,3.834,1,2.168,5.5c-1.668,4.5,0.5,3,2,6.5s5.166,3.836,8,5.17c2.832,1.33,7.166,1.165,8,8 c0.832,6.83,2.334,10.162,9,13.496c6.666,3.335,1.5,4.504,2,5.335c0.5,0.835,2.75,6.5,6,8.75s0,5.75,6,8.75s-1,1.75-5.75,4.5 s-12.25,8.25-5.75,10.5s6.75-0.25,8-1.5s4.25,1,4.75,1.75s0.25,3.5,6.5-16.75c2.25-2,7.5,1.25,11.25,3.75s0.5-4.5,10.75,3.25 c3.896,1.044,5.5-0.25,4.25-3.75s-1.584-19.053,1.5-16.75c6.107,4.56,13.168,2.169,21.168-0.165s11-5.666,4-7 c-7-1.335-5.336-3.335-1.502-8.335c3.835-5-5.834-6.331-3.166-7.831c2.666-1.5-4.334-6.5-1.168-6.5s10.668-1.5,11.334-3.835 c0.668-2.334,8.334-3.334,8.334-3.334c2.666-0.666,8.332-5.5,8-1.335c-0.334,4.166-5.334,5.335-7,7.5 c-1.668,2.166-0.5,13.669-0.5,13.669c5.332,6.331,15-0.835,19.5-1.835s-7.834-14.166-7.834-14.166s7.666-0.665,7.5,0 c-0.166,0.666,3.834,6.5,6.834,6.335c3-0.166,2.666-3.5,2.666-6s-1.672-6.985,1.5-7c16,0.334,18-5,20.666-8.335 c2.666-3.334,7-2,4.834,0.666c-2.166,2.668-5.666,7.5-3.166,7s6.016-0.67,7.332,2.834c0.666,6.5,4.668,9.5,7.168,9.166 c2.5-0.331,5.666-2.665,7.832-1.5c2.166,1.169,5.834,3.335,6.5,1.169s1.834-1,3-4.835c1.166-3.834-9.5-1.665-8-3.834 c1.5-2.166,1.834-7.166,1.334-9.832s0.5-3,6.166-2.834s6.668-5,6.668-5c5.666-5,7.166-3.5,6.332-1.5c-0.832,2-4.332,4.332-4,4.832 c0.334,0.5,8.834,0.668,10.334,4c1.5,3.334-2.834,10.334,3,8c5.832-2.334,11.834-8.5,15.834-8.332c4,0.166,7.166-2.5,7.166-2.5 s-0.5-4.5-0.5-6.334c0-1.832,2.682-4.979,6-4.166c2.666,4.166-0.5,2.332-0.5,7.332s4.5,2.834,6,0.334s6.334-3.166,8.666-8.166 c2.334-5,9.168-5,11.668-3.834c2.5,1.168,8.832,0.334,9.666,0.334c0.832,0,2.893,1.801,3.834-0.834c0.5-5.5,5-8,5-8 s2.166-6.166,0.5-9c-1.668-2.832,1.832-7.332,1.832-7.332l-0.332-4.334c0,0,1.332-1.5,2-0.334c0.666,1.168,6.5,4.834,6.166,4.168 c-0.332-0.666,3.666-5.334,3.666-5.334s7.5,2.5,7.834-1s-0.166-11.5-9.834-9.166c-9.666,2.334-13.332-1.834-12.332-5.168 c1-3.332,6-1.834,6.332-1.334c0.334,0.5,1.834-0.666,5.834,2s10.5,0.168,10.666-1.832s-3.166-4.666,1.334-5.834 c4.5-1.166,10.834-6.666,8.334-9.666s-1.834-5.666-1.834-5.666l3-0.834c-0.168-7.5,2.166-6.166,7.666-7.666s9,3.166,9,3.166 s0.668-2.418,0.584-3.668s-1.666-2.666-2.25-4.082c-0.584-1.418-2.166-3.25-2.5-5.584c-0.334-2.332-0.416-5.332-1.916-7.582 s-4.834-4.168-6.5-6.584c-1.666-2.417-1.25-4.417-1.25-6.417s-0.416-4.584-1.666-6.5s-3-2.584-4-4.668c-1-2.082-1-3.75,0-5.75 s4.334-7.166,4.416-9c0.084-1.832-1.416-4.25-2.832-5.666c-1.416-1.418-3.168-4.334-4.084-6.834c-0.918-2.5-1.5-7.166-2.5-9.416 s-2.668-4.834-4.25-6.834c-1.584-2-5.168-5.75-6.5-7.332c-1.334-1.584-3.418-4.334-3.334-5.834s1.416-5.25,2.084-6.416 c0.666-1.166,0-2.084-1-2.5s-7.75,0-10.25,0.082c-2.5,0.084-5.5,1.418-7.084,2.25c-1.582,0.834-4,2.834-5.75,3.418 s-2.666,1.082-4.75-1.25c-2.082-2.334-1-7.084-2.166-9.25c-1.168-2.166-3.5-3.668-5.75-4.25c-2.25-0.584-4.834-2.584-5.25-4 c-0.418-1.416,2.332-5.584,1.916-6.418c-0.416-0.832-4.166,1.918-5.416,3.084s-2.75,3.582-4.916,3.332s-6-3.082-8.334-3.25 c-2.334-0.166-5.834,1.668-9.166,1.5c-3.334-0.166-4.993-0.938-6.15-2.438c-1.159-1.498-4.563-4.753-6.141-5.389 c-1.572-0.637-6.736-0.002-8.123-0.002c-1.385,0-4.004-0.467-4.004-0.467c-0.313,1.313-3.5,3.813-5,4.813s-4.188,3.688-4.5,5.625 c-0.313,1.938-2.125,3.188-2.125,6.063s-0.688,8-0.188,9.313c0.5,1.313,1.625,4.5,3.625,6.875s3.5,4.563,3.125,5.25 c-0.375,0.687-2.125,1.313-2.938,1.375c-0.813,0.063-2.75,0.313-4,0c-1.25-0.313-5.188-0.688-6.813-1.5 c-1.625-0.813-8.063-4.438-8.938-5.813s-4.375-4.688-5.375-6.75s-3.125-4.938-4.063-5.438c-0.938-0.5-3.438-1.688-5.438-0.938 s-4.188,2.313-5.875,2.688c-1.688,0.375-12.25,0.813-12.25,0.813s-0.75,0.063-1.188,1.063c-0.438,1-1.063,3.375-1.75,3.938 c-0.687,0.563-2.063,1.5-4.063,1.75s-4.063,0.125-5.188,0s-2.125-1-3.563-0.938c-1.438,0.062-5.875,0.563-7.25,1.313 s-4.875,1.625-6.125,2.688s-5.5,7.875-6.188,8.5c-0.688,0.625-0.125,2.313-0.625,2.375s-6.813-3.625-7.875-3.625 c-1.062,0-3-0.375-3.75,0.688s-0.375,5.313-0.625,6.375c-0.25,1.063-0.875,0.625-1.875,0.75s-7.313-0.5-8-0.75 c-0.687-0.25-4.125-1.125-5.313-0.813c-1.188,0.312-4.688,1.375-6.5,2.375c-1.813,1-10.25,5.188-11.313,5.375 c-1.063,0.188-2.813-1.25-3.188-1.375s-5.75-7.063-6.563-8.313c-0.813-1.25-1.5-2.875-3.375-3.75s-2.813-2.063-4.688-2.813 s-2.375-1.438-2.5-2.5c-0.125-1.063-0.813-0.5,1-2.688c1.813-2.188,9.625-6.063,11.188-7.875c1.563-1.813,2.5-1.688,3-3.063 s1.063-2.75,1.313-3.75s-0.563-5.125-0.5-6.75c0.063-1.625,0.063-3,0.188-4.125s0.375-1.813,1.5-2.813s8.188-7.063,9-7.625 c0.813-0.563,4.938-3.438,6.25-4c1.313-0.563,6.688-3.688,8.813-3.75c2.125-0.063,2.563,0.188,4.125-1.313 c1.562-1.501,1.375-2.938,1.438-4.5c0.063-1.563,0-13.375,0-13.375s-0.188-2-0.75-2.75c-0.562-0.75-4.125-3.5-5.625-4.75 s-10.25-9.375-11.563-9.688c-1.313-0.313-3.625-0.688-4.313-0.563c-0.688,0.125-2.75,1.188-3,1.563s-2,2.125-2.813,3.188 c-0.813,1.063-2.188,2.438-3.063,3.375c-0.875,0.938-3.75,3.75-4.188,4.125c-0.438,0.375-4.5,2.438-5.438,2.313 c-0.938-0.125-5.938-0.188-7.625-0.438c-1.687-0.25-6.063-0.438-7.063-0.5s-2.688,1.313-3.563,2 c-0.875,0.688-2.063,1.563-3.375,1.563c-1.312,0-3.938-0.125-4.188-0.188s-1.5-1.688-1.625-2.375s-0.563-3.188-0.625-4.188 c-0.063-1-1.125-4.5-1.125-4.5s-2.25-3.25-2.688-3.625c-0.438-0.375-3.438-2-3.438-2s-0.563-0.813-2.188-0.688 c0,0-1.438,0.5-2.125,1.125c-0.687,0.625-0.688,0.688-1.75,2.125c-1.063,1.438-1.688,3.125-2.188,4.875s-2.625,4.5-4.938,4.938 c-2.313,0.438-5.188,0.25-7.375,0.438c-2.187,0.188-5.5,1.25-7.625,1.813c-2.125,0.563-7.125,0.75-8.813,0.313 c-1.688-0.438-3.125-1.688-5.75-1.875c-2.625-0.188-5.063-0.25-7-0.25c-1.938,0-4.875-1.313-6.938-2.75 c-2.063-1.438-5-6.375-5.75-8.313c-0.75-1.938-3.563-4.188-5.375-4.813c-1.812-0.625-5.813-0.313-7.5,0.313 c-1.688,0.627-7.063,5.875-8.625,8.125c-1.562,2.25-5.375,7-6.563,7.813c-1.188,0.813-4.063,0.125-5.75,0.75 c-1.688,0.625-1.375,2.563-4.125,3.25s-5.188,1.563-6.751,2.188c-1.563,0.625-2.313,2.375-1.688,4.188 c0.625,1.813,5.313,3.313,6.813,3.813s7.938-0.063,9.438,0.688s0.375,4.688-0.375,6.188s-2.313,6.938-2.188,9.063 s2.375,7.063,3.25,8.688s1.375,5.313,1,6.625c-0.375,1.313-3.188,3.25-6.063,3.625s-8,0.063-11.502-0.063 c-3.5-0.126-8.125-3.063-9.375-4.438s-2.75-7.813-3.5-9.813s-3.063-4.938-4.25-6c-1.188-1.063-3.938-2.438-6.25-3 c-2.313-0.563-11.25-3.063-15.063-3.75c-3.813-0.688-9.625-1.188-11.688-1.313c-2.063-0.125-6.563-0.063-8.252,0 c-1.688,0.063-5.438,1.125-6.563,2.75s-0.875,4.5-1.25,6.125s-1.938,4.063-2.688,5.813s-1.563,11.938-1.375,14.313 c0.188,2.375-0.813,9.438-1.938,11.813s-2.75,3.875-4.438,5.313C1160.288,226.885,1156.558,228.258,1154.183,228.508"></path></g><g id="点点"><g id="广东"><g id="广东高院"><circle id="mapid-360000-circle" fill="#182F5B" cx="1290.42" cy="393.088" r="4"></circle></g><g id="珠海"><circle id="_x33_60499_1_" fill="#182F5B" cx="1305.141" cy="481.496" r="4"></circle><circle id="_x33_60401" fill="#182F5B" cx="1306.739" cy="484.886" r="4"></circle><circle id="_x33_60403" fill="#182F5B" cx="1307.541" cy="499.49" r="4"></circle><circle id="_x33_60402" fill="#182F5B" cx="1288.021" cy="497.261" r="4"></circle><circle id="_x33_60404" fill="#182F5B" cx="1286.062" cy="507.107" r="4"></circle></g><g id="江门"><circle id="_x33_60707" fill="#182F5B" cx="1257.603" cy="433.461" r="4"></circle><circle id="_x33_60701" fill="#182F5B" cx="1267.299" cy="447.793" r="4"></circle><circle id="_x33_60702" fill="#182F5B" cx="1266.799" cy="451.529" r="4"></circle><circle id="_x33_60703" fill="#182F5B" cx="1262.401" cy="458.934" r="4"></circle><circle id="_x33_60706" fill="#182F5B" cx="1228.552" cy="467.775" r="4"></circle><circle id="_x33_60705" fill="#182F5B" cx="1184.663" cy="483.896" r="4"></circle><circle id="_x33_60704" fill="#182F5B" cx="1240.197" cy="479.097" r="4"></circle><circle id="_x33_60799" fill="#182F5B" cx="1260.002" cy="442.504" r="4"></circle></g><g id="茂名"><circle id="_x33_60902" fill="#182F5B" cx="1053.201" cy="474.429" r="4"></circle><circle id="_x33_60905" fill="#182F5B" cx="1026.188" cy="543.531" r="4"></circle><circle id="_x33_60901" fill="#182F5B" cx="1046.889" cy="543.89" r="4"></circle><circle id="_x33_60999" fill="#182F5B" cx="1050.803" cy="543.531" r="4"></circle><circle id="_x33_60906" fill="#182F5B" cx="1053.201" cy="562.025" r="4"></circle><circle id="_x33_60904" fill="#182F5B" cx="1071.425" cy="538.73" r="4"></circle><circle id="_x33_60903" fill="#182F5B" cx="1042.09" cy="519.242" r="4"></circle></g><g id="湛江"><circle id="_x33_60806" fill="#182F5B" cx="980.067" cy="549.375" r="4"></circle><circle id="_x33_60805" fill="#182F5B" cx="1024.589" cy="565.574" r="4"></circle><circle id="_x33_60804" fill="#182F5B" cx="987.774" cy="585.688" r="4"></circle><circle id="_x33_60803" fill="#182F5B" cx="1002.394" cy="587.086" r="4"></circle><circle id="_x33_60899" fill="#182F5B" cx="995.598" cy="570.135" r="4"></circle><circle id="_x33_60817" fill="#182F5B" cx="987.787" cy="591.486" r="4"></circle><circle id="_x33_60802" fill="#182F5B" cx="989.187" cy="595.086" r="4"></circle><circle id="_x33_60808" fill="#182F5B" cx="962.087" cy="624.938" r="4"></circle><circle id="_x33_60809" fill="#182F5B" cx="969.485" cy="685.487" r="4"></circle><circle id="_x33_60807" fill="#182F5B" cx="953.287" cy="588.086" r="4"></circle><circle id="_x33_60801" fill="#182F5B" cx="976.207" cy="568.938" r="4"></circle></g><g id="韶关"><circle id="_x33_60218" fill="#182F5B" cx="1282.497" cy="219.595" r="4"></circle><circle id="_x33_60208" fill="#182F5B" cx="1290.42" cy="181.396" r="4"></circle><circle id="_x33_60207" fill="#182F5B" cx="1327.247" cy="186.195" r="4"></circle><circle id="_x33_60206" fill="#182F5B" cx="1379.567" cy="181.396" r="4"></circle><circle id="_x33_60205" fill="#182F5B" cx="1355.897" cy="200.396" r="4"></circle><circle id="_x33_60203" fill="#182F5B" cx="1310.698" cy="210.086" r="4"></circle><circle id="_x33_60299" fill="#182F5B" cx="1312.1" cy="214.886" r="4"></circle><circle id="_x33_60204" fill="#182F5B" cx="1313.1" cy="228.888" r="4"></circle><circle id="_x33_60209_1_" fill="#182F5B" cx="1361.698" cy="265.541" r="4"></circle><circle id="_x33_60204_1_" fill="#182F5B" cx="1312.1" cy="219.595" r="4"></circle><circle id="_x33_60217" fill="#182F5B" cx="1369.897" cy="299.886" r="4"></circle></g><g id="清远"><circle id="_x33_62508" fill="#182F5B" cx="1169.196" cy="240.486" r="4"></circle><circle id="_x33_62507" fill="#182F5B" cx="1187.695" cy="221.996" r="4"></circle><circle id="_x33_62503" fill="#182F5B" cx="1198.296" cy="218.66" r="4"></circle><circle id="_x33_62504" fill="#182F5B" cx="1222.298" cy="249.063" r="4"></circle><circle id="_x33_62505" fill="#182F5B" cx="1293.469" cy="281.261" r="4"></circle><circle id="_x33_62502" fill="#182F5B" cx="1243.401" cy="315.086" r="4"></circle><circle id="_x33_62501" fill="#182F5B" cx="1257.497" cy="332.861" r="4"></circle><circle id="_x33_62599" fill="#182F5B" cx="1261.1" cy="337.66" r="4"></circle><circle id="_x33_62506" fill="#182F5B" cx="1305.434" cy="317.486" r="4"></circle></g><g id="河源"><circle id="_x33_62305" fill="#182F5B" cx="1401.497" cy="264.66" r="4"></circle><circle id="_x33_62304" fill="#182F5B" cx="1443.362" cy="255.086" r="4"></circle><circle id="_x33_62306" fill="#182F5B" cx="1473.698" cy="291.885" r="4"></circle><circle id="_x33_62302" fill="#182F5B" cx="1424.497" cy="324.688" r="4"></circle><circle id="_x33_62301" fill="#182F5B" cx="1420.911" cy="333.82" r="4"></circle><circle id="_x33_62303" fill="#182F5B" cx="1466.897" cy="341.461" r="4"></circle><circle id="_x33_62399" fill="#182F5B" cx="1420.911" cy="329.02" r="4"></circle></g><g id="梅州"><circle id="_x33_61907" fill="#182F5B" cx="1534.627" cy="241.396" r="4"></circle><circle id="_x33_61908" fill="#182F5B" cx="1560.616" cy="230.154" r="4"></circle><circle id="_x33_61903" fill="#182F5B" cx="1611.498" cy="263.285" r="4"></circle><circle id="_x33_61906" fill="#182F5B" cx="1517.299" cy="286.861" r="4"></circle><circle id="_x33_61902" fill="#182F5B" cx="1551.698" cy="273.677" r="4"></circle><circle id="_x33_61999" fill="#182F5B" cx="1557.235" cy="271.275" r="4"></circle><circle id="_x33_61901" fill="#182F5B" cx="1556.498" cy="265.688" r="4"></circle><circle id="_x33_61905" fill="#182F5B" cx="1522.101" cy="309.486" r="4"></circle><circle id="_x33_61904" fill="#182F5B" cx="1563.019" cy="329.02" r="4"></circle></g><g id="潮州"><circle id="_x33_62601" fill="#182F5B" cx="1606.528" cy="331.418" r="4"></circle><circle id="_x33_62699" fill="#182F5B" cx="1606.528" cy="338.084" r="4"></circle><circle id="_x33_62604" fill="#182F5B" cx="1614.897" cy="339.063" r="4"></circle><circle id="_x33_62603" fill="#182F5B" cx="1642.101" cy="331.418" r="4"></circle><circle id="_x33_62602" fill="#182F5B" cx="1610.101" cy="354.742" r="4"></circle></g><g id="肇庆"><circle id="_x33_62106" fill="#182F5B" cx="1175.694" cy="311.85" r="4"></circle><circle id="_x33_62107" fill="#182F5B" cx="1108.892" cy="365.261" r="4"></circle><circle id="_x33_62105" fill="#182F5B" cx="1197.197" cy="341.261" r="4"></circle><circle id="_x33_62104" fill="#182F5B" cx="1227.298" cy="372.469" r="4"></circle><circle id="_x33_62108" fill="#182F5B" cx="1136.104" cy="390.689" r="4"></circle><circle id="_x33_62102" fill="#182F5B" cx="1211.696" cy="391.66" r="4"></circle><circle id="_x33_62805" fill="#182F5B" cx="1187.063" cy="386.261" r="4"></circle><circle id="_x33_62199" fill="#182F5B" cx="1205.516" cy="398.088" r="4"></circle><circle id="_x33_62101" fill="#182F5B" cx="1205.297" cy="402.888" r="4"></circle><circle id="_x33_62103" fill="#182F5B" cx="1200.494" cy="405.287" r="4"></circle></g><g id="广州"><circle id="_x33_60121" fill="#182F5B" cx="1305.997" cy="429.063" r="4"></circle><circle id="_x33_60199" fill="#182F5B" cx="1272.198" cy="385.361" r="4"></circle><circle id="_x33_62899" fill="#182F5B" cx="1275.893" cy="387.459" r="4"></circle><circle id="_x33_60103" fill="#182F5B" cx="1277" cy="391.088" r="4"></circle><circle id="_x33_62999" fill="#182F5B" cx="1279.397" cy="394.461" r="4"></circle><circle id="_x33_60104" fill="#182F5B" cx="1280.692" cy="398.488" r="4"></circle><circle id="_x33_60102" fill="#182F5B" cx="1269.799" cy="394.908" r="4"></circle><circle id="_x33_60119" fill="#182F5B" cx="1281.799" cy="405.688" r="4"></circle><circle id="_x33_60108" fill="#182F5B" cx="1281.021" cy="387.459" r="4"></circle><circle id="_x33_60106" fill="#182F5B" cx="1288.221" cy="391.088" r="4"></circle><circle id="_x33_60107" fill="#182F5B" cx="1293.633" cy="392.063" r="4"></circle><circle id="_x33_60120_6_" fill="#182F5B" cx="1296.032" cy="384.261" r="4"></circle><circle id="_x33_62801" fill="#182F5B" cx="1293.633" cy="370.469" r="4"></circle><circle id="_x33_63199" fill="#182F5B" cx="1312.221" cy="357.785" r="4"></circle><circle id="_x33_60117" fill="#182F5B" cx="1305.021" cy="347.775" r="4"></circle><circle id="_x33_60109" fill="#182F5B" cx="1269.799" cy="357.785" r="4"></circle><circle id="_x33_60118" fill="#182F5B" cx="1329.887" cy="372.869" r="4"></circle></g><g id="惠州"><circle id="_x33_62005" fill="#182F5B" cx="1377.725" cy="330.461" r="4"></circle><circle id="_x33_62099" fill="#182F5B" cx="1391.934" cy="390.689" r="4"></circle><circle id="_x33_62001" fill="#182F5B" cx="1391.934" cy="399.309" r="4"></circle><circle id="_x33_62004" fill="#182F5B" cx="1419.698" cy="406.861" r="4"></circle><circle id="_x33_62002" fill="#182F5B" cx="1396.732" cy="427.574" r="4"></circle><circle id="_x33_62006" fill="#182F5B" cx="1401.532" cy="433.395" r="4"></circle><circle id="_x33_62003_1_" fill="#182F5B" cx="1377.725" cy="386.261" r="4"></circle></g><g id="汕尾"><circle id="_x33_62204" fill="#182F5B" cx="1515.101" cy="360.729" r="4"></circle><circle id="_x33_62203" fill="#182F5B" cx="1479.698" cy="397.66" r="4"></circle><circle id="_x33_62202" fill="#182F5B" cx="1511.997" cy="401.461" r="4"></circle><circle id="_x33_62299" fill="#182F5B" cx="1483.299" cy="410.104" r="4"></circle><circle id="_x33_62001_1_" fill="#182F5B" cx="1480.897" cy="414.904" r="4"></circle></g><g id="揭阳"><circle id="_x33_62705" fill="#182F5B" cx="1560.616" cy="369.16" r="4"></circle><circle id="_x33_62704" fill="#182F5B" cx="1575.567" cy="399.429" r="4"></circle><circle id="_x33_62703" fill="#182F5B" cx="1531.06" cy="356.529" r="4"></circle><circle id="_x33_62701" fill="#182F5B" cx="1587.366" cy="341.861" r="4"></circle><circle id="_x33_62799_1_" fill="#182F5B" cx="1582.567" cy="343.729" r="4"></circle><circle id="_x33_62702" fill="#182F5B" cx="1569.032" cy="331.285" r="4"></circle></g><g id="汕头"><circle id="_x33_60506" fill="#182F5B" cx="1612.897" cy="361.742" r="4"></circle><circle id="_x33_60508" fill="#182F5B" cx="1625.769" cy="365.529" r="4"></circle><circle id="_x33_60501" fill="#182F5B" cx="1607.698" cy="371.703" r="4"></circle><circle id="_x33_60599" fill="#182F5B" cx="1610.897" cy="376.463" r="4"></circle><circle id="_x33_60504" fill="#182F5B" cx="1608.498" cy="384.129" r="4"></circle><circle id="_x33_60509" fill="#182F5B" cx="1597.231" cy="386.861" r="4"></circle><circle id="_x33_60517" fill="#182F5B" cx="1599.633" cy="377.07" r="4"></circle><circle id="_x33_60502" fill="#182F5B" cx="1580.967" cy="400.092" r="4"></circle></g><g id="云浮"><circle id="_x33_63003" fill="#182F5B" cx="1112.281" cy="380.229" r="4"></circle><circle id="_x33_63005" fill="#182F5B" cx="1156.788" cy="399.309" r="4"></circle><circle id="_x33_63001" fill="#182F5B" cx="1159.188" cy="411.66" r="4"></circle><circle id="_x33_63099" fill="#182F5B" cx="1159.188" cy="417.082" r="4"></circle><circle id="_x33_63004" fill="#182F5B" cx="1116.292" cy="433.461" r="4"></circle><circle id="_x33_63002" fill="#182F5B" cx="1175.43" cy="429.975" r="4"></circle></g><g id="佛山"><circle id="_x33_60603" fill="#182F5B" cx="1242.6" cy="389.761" r="4"></circle><circle id="_x33_60604" fill="#182F5B" cx="1266.799" cy="400.488" r="4"></circle><circle id="_x33_60601" fill="#182F5B" cx="1263.497" cy="405.287" r="4"></circle><circle id="_x33_60699" fill="#182F5B" cx="1267.299" cy="409.261" r="4"></circle><circle id="_x33_60606" fill="#182F5B" cx="1238.601" cy="418.261" r="4"></circle><circle id="_x33_60605" fill="#182F5B" cx="1279.198" cy="427.574" r="4"></circle></g><g id="东莞"><circle id="_x33_61801" fill="#182F5B" cx="1329.479" cy="407.688" r="4"></circle><circle id="_x33_60121_2_" fill="#182F5B" cx="1331.879" cy="417.082" r="4"></circle><circle id="_x33_61802" fill="#182F5B" cx="1348.688" cy="419.498" r="4"></circle><circle id="_x33_61803" fill="#182F5B" cx="1373.1" cy="417.861" r="4"></circle></g><g id="深圳"><circle id="_x33_60304" fill="#182F5B" cx="1350.497" cy="450.861" r="4"></circle><circle id="_x33_60307" fill="#182F5B" cx="1343.286" cy="438.195" r="4"></circle><circle id="_x33_60303" fill="#182F5B" cx="1353.965" cy="454.604" r="4"></circle><circle id="_x33_60302" fill="#182F5B" cx="1363.168" cy="455.66" r="4"></circle><circle id="_x33_60399" fill="#182F5B" cx="1367.497" cy="452.594" r="4"></circle><circle id="_x33_60301" fill="#182F5B" cx="1372.299" cy="451.529" r="4"></circle><circle id="_x33_60306" fill="#182F5B" cx="1378.045" cy="451.861" r="4"></circle><circle id="_x33_60305" fill="#182F5B" cx="1379.377" cy="435.793" r="4"></circle></g><g id="中山"><circle id="_x33_61701" fill="#182F5B" cx="1290.42" cy="458.063" r="4"></circle><circle id="_x33_61702" fill="#182F5B" cx="1282.497" cy="450.195" r="4"></circle><circle id="_x33_61799_1_" fill="#182F5B" cx="1289.594" cy="465.834" r="4"></circle></g><g id="阳江"><circle id="_x33_62403" fill="#182F5B" cx="1118.691" cy="533.275" r="4"></circle><circle id="_x33_62401" fill="#182F5B" cx="1144.294" cy="530.875" r="4"></circle><circle id="_x33_62499" fill="#182F5B" cx="1153.492" cy="521.643" r="4"></circle><circle id="_x33_62402" fill="#182F5B" cx="1156.788" cy="524.354" r="4"></circle><circle id="_x33_62404" fill="#182F5B" cx="1105.386" cy="488.697" r="4"></circle></g></g><g id="广西"><g id="广西高院"><circle id="mapid-370000-circle" fill="#182F5B" cx="804.307" cy="430.595" r="4"></circle></g><g id="贵港"><circle id="_x33_72303" fill="#182F5B" cx="959.257" cy="376.738" r="4"></circle><circle id="_x33_72305" fill="#182F5B" cx="900.307" cy="401.65" r="4"></circle><circle id="_x33_72399" fill="#182F5B" cx="915.117" cy="402.238" r="4"></circle><circle id="_x33_72301" fill="#182F5B" cx="915.958" cy="409.439" r="4"></circle><circle id="_x33_72302" fill="#182F5B" cx="911.358" cy="404.338" r="4"></circle><circle id="_x33_72304" fill="#182F5B" cx="992.408" cy="359.854" r="4"></circle></g><g id="防城港"><circle id="_x33_72203" fill="#182F5B" cx="761.509" cy="502.496" r="4"></circle><circle id="_x33_72201" fill="#182F5B" cx="796.449" cy="541.74" r="4"></circle><circle id="_x33_72299" fill="#182F5B" cx="796.449" cy="547.844" r="4"></circle><circle id="_x33_72202" fill="#182F5B" cx="800.048" cy="550.14" r="4"></circle><circle id="_x33_72204" fill="#182F5B" cx="761.509" cy="563.629" r="4"></circle></g><g id="百色"><circle id="_x33_71819" fill="#182F5B" cx="500.708" cy="227.638" r="4"></circle><circle id="_x33_71802" fill="#182F5B" cx="655.208" cy="336.838" r="4"></circle><circle id="_x33_71805" fill="#182F5B" cx="628.106" cy="384.537" r="4"></circle><circle id="_x33_71804" fill="#182F5B" cx="721.507" cy="380.552" r="4"></circle><circle id="_x33_71807" fill="#182F5B" cx="554.408" cy="372.838" r="4"></circle><circle id="_x33_71806" fill="#182F5B" cx="608.408" cy="403.49" r="4"></circle><circle id="_x33_71818" fill="#182F5B" cx="485.408" cy="254.146" r="4"></circle><circle id="_x33_71808" fill="#182F5B" cx="624.507" cy="267.838" r="4"></circle><circle id="_x33_71801" fill="#182F5B" cx="628.106" cy="320.885" r="4"></circle><circle id="_x33_71899" fill="#182F5B" cx="633.908" cy="320.885" r="4"></circle><circle id="_x33_71803" fill="#182F5B" cx="677.929" cy="353.623" r="4"></circle><circle id="_x33_71817" fill="#182F5B" cx="592.179" cy="273.515" r="4"></circle><circle id="_x33_71809" fill="#182F5B" cx="622.706" cy="221.338" r="4"></circle></g><g id="钦州"><circle id="_x33_72002" fill="#182F5B" cx="885.458" cy="477.238" r="4"></circle><circle id="_x33_72099" fill="#182F5B" cx="820.065" cy="522.088" r="4"></circle><circle id="_x33_72004" fill="#182F5B" cx="823.666" cy="524.939" r="4"></circle><circle id="_x33_72003" fill="#182F5B" cx="912.158" cy="491.189" r="4"></circle><circle id="_x33_72001" fill="#182F5B" cx="813.908" cy="502.496" r="4"></circle></g><g id="河池"><circle id="_x33_71903" fill="#182F5B" cx="719.708" cy="212.824" r="4"></circle><circle id="_x33_71908" fill="#182F5B" cx="786.417" cy="228.238" r="4"></circle><circle id="_x33_71999" fill="#182F5B" cx="771.867" cy="242.638" r="4"></circle><circle id="_x33_71901" fill="#182F5B" cx="768.007" cy="242.638" r="4"></circle><circle id="_x33_71902" fill="#182F5B" cx="823.507" cy="261.281" r="4"></circle><circle id="_x33_71907" fill="#182F5B" cx="845.951" cy="231.838" r="4"></circle><circle id="_x33_71904" fill="#182F5B" cx="686.408" cy="211.023" r="4"></circle><circle id="_x33_71905" fill="#182F5B" cx="676.13" cy="257.681" r="4"></circle><circle id="_x33_71906" fill="#182F5B" cx="706.507" cy="259.48" r="4"></circle><circle id="_x33_71917" fill="#182F5B" cx="771.867" cy="320.885" r="4"></circle><circle id="_x33_71918" fill="#182F5B" cx="761.708" cy="341.439" r="4"></circle><circle id="_x33_71909" fill="#182F5B" cx="693.606" cy="299.638" r="4"></circle></g><g id="玉林"><circle id="_x33_71799" fill="#182F5B" cx="971.509" cy="453.936" r="4"></circle><circle id="_x33_71701" fill="#182F5B" cx="966.287" cy="453.936" r="4"></circle><circle id="_x33_71705" fill="#182F5B" cx="943.826" cy="442.238" r="4"></circle><circle id="_x33_71703" fill="#182F5B" cx="986.908" cy="445.838" r="4"></circle><circle id="_x33_71702" fill="#182F5B" cx="1004.908" cy="432.037" r="4"></circle><circle id="_x33_71704" fill="#182F5B" cx="979.478" cy="483.838" r="4"></circle><circle id="_x33_71706" fill="#182F5B" cx="952.908" cy="490.438" r="4"></circle><circle id="_x33_71707" fill="#182F5B" cx="934.634" cy="495.975" r="4"></circle></g><g id="贺州"><circle id="_x33_70901" fill="#182F5B" cx="1031.607" cy="291.813" r="4"></circle><circle id="_x33_70903" fill="#182F5B" cx="1075.212" cy="256.638" r="4"></circle><circle id="_x33_70904" fill="#182F5B" cx="1073.411" cy="228.238" r="4"></circle><circle id="_x33_70999" fill="#182F5B" cx="1102.214" cy="267.57" r="4"></circle><circle id="_x33_70902" fill="#182F5B" cx="1096.912" cy="267.57" r="4"></circle></g><g id="来宾"><circle id="_x33_70799" fill="#182F5B" cx="873.56" cy="330.638" r="4"></circle><circle id="_x33_70709" fill="#182F5B" cx="974.113" cy="297.638" r="4"></circle><circle id="_x33_70704" fill="#182F5B" cx="923.373" cy="350.023" r="4"></circle><circle id="_x33_70703" fill="#182F5B" cx="926.509" cy="314.638" r="4"></circle><circle id="_x33_70705" fill="#182F5B" cx="880.113" cy="339.638" r="4"></circle><circle id="_x33_70701" fill="#182F5B" cx="847.75" cy="330.638" r="4"></circle><circle id="_x33_70707" fill="#182F5B" cx="825.307" cy="304.621" r="4"></circle></g><g id="崇左"><circle id="_x33_70608" fill="#182F5B" cx="677.929" cy="443.939" r="4"></circle><circle id="_x33_70617" fill="#182F5B" cx="670.783" cy="504.299" r="4"></circle><circle id="_x33_70601" fill="#182F5B" cx="642.983" cy="506.097" r="4"></circle><circle id="_x33_70618" fill="#182F5B" cx="650.708" cy="482.635" r="4"></circle><circle id="_x33_70699" fill="#182F5B" cx="701.725" cy="479.035" r="4"></circle><circle id="_x33_70607" fill="#182F5B" cx="684.908" cy="434.939" r="4"></circle><circle id="_x33_70609" fill="#182F5B" cx="679.729" cy="411.646" r="4"></circle><circle id="_x33_70619" fill="#182F5B" cx="749.55" cy="465.838" r="4"></circle></g><g id="北海"><circle id="_x33_70504" fill="#182F5B" cx="899.257" cy="563.338" r="4"></circle><circle id="_x33_70599" fill="#182F5B" cx="875.36" cy="570.414" r="4"></circle><circle id="_x33_70501" fill="#182F5B" cx="872.447" cy="575.638" r="4"></circle><circle id="_x33_70502" fill="#182F5B" cx="876.307" cy="577.439" r="4"></circle><circle id="_x33_70503" fill="#182F5B" cx="880.057" cy="551.771" r="4"></circle><circle id="_x33_72499" fill="#182F5B" cx="872.447" cy="572.213" r="4"></circle></g><g id="南宁"><circle id="_x33_70199" fill="#182F5B" cx="804.307" cy="434.939" r="4"></circle><circle id="_x33_70102" fill="#182F5B" cx="798.908" cy="434.939" r="4"></circle><circle id="_x33_70107" fill="#182F5B" cx="811.208" cy="442.138" r="4"></circle><circle id="_x33_70104" fill="#182F5B" cx="792.848" cy="436.738" r="4"></circle><circle id="_x33_72102" fill="#182F5B" cx="789.25" cy="428.793" r="4"></circle><circle id="_x33_72199" fill="#182F5B" cx="791.048" cy="433.138" r="4"></circle><circle id="_x33_70108" fill="#182F5B" cx="791.048" cy="397.936" r="4"></circle><circle id="_x33_70101" fill="#182F5B" cx="798.908" cy="426.994" r="4"></circle><circle id="_x33_70109_1_" fill="#182F5B" cx="847.75" cy="455.64" r="4"></circle><circle id="_x33_70117_1_" fill="#182F5B" cx="837.509" cy="442.138" r="4"></circle><circle id="_x33_70118_1_" fill="#182F5B" cx="825.908" cy="434.939" r="4"></circle><circle id="_x33_70119" fill="#182F5B" cx="716.723" cy="418.638" r="4"></circle><circle id="_x33_70120" fill="#182F5B" cx="751.348" cy="389.621" r="4"></circle><circle id="_x33_70121" fill="#182F5B" cx="768.394" cy="438.537" r="4"></circle><circle id="_x33_70122" fill="#182F5B" cx="761.509" cy="407.638" r="4"></circle></g><g id="梧州"><circle id="_x33_70403" fill="#182F5B" cx="1068.609" cy="357.436" r="4"></circle><circle id="_x33_70405" fill="#182F5B" cx="1032.909" cy="429.238" r="4"></circle><circle id="_x33_70401" fill="#182F5B" cx="1083.012" cy="362.939" r="4"></circle><circle id="_x33_70499" fill="#182F5B" cx="1075.812" cy="364.738" r="4"></circle><circle id="_x33_70406" fill="#182F5B" cx="1044.194" cy="374.939" r="4"></circle><circle id="_x33_70404" fill="#182F5B" cx="1072.212" cy="370.138" r="4"></circle><circle id="_x33_70407" fill="#182F5B" cx="1003.215" cy="288.211" r="4"></circle><circle id="_x33_70408" fill="#182F5B" cx="1072.212" cy="332.439" r="4"></circle></g><g id="桂林"><circle id="_x33_70308" fill="#182F5B" cx="981.279" cy="165.32" r="4"></circle><circle id="_x33_70317_1_" fill="#182F5B" cx="1015.209" cy="147.263" r="4"></circle><circle id="_x33_70309" fill="#182F5B" cx="1052.108" cy="112.738" r="4"></circle><circle id="_x33_70319" fill="#182F5B" cx="1060.812" cy="158.037" r="4"></circle><circle id="_x33_70320" fill="#182F5B" cx="1011.606" cy="100.115" r="4"></circle><circle id="_x33_70323" fill="#182F5B" cx="951.908" cy="125.939" r="4"></circle><circle id="_x33_70399" fill="#182F5B" cx="983.935" cy="187.191" r="4"></circle><circle id="_x33_70305" fill="#182F5B" cx="984.878" cy="195.838" r="4"></circle><circle id="_x33_70301" fill="#182F5B" cx="975.878" cy="177.061" r="4"></circle><circle id="_x33_70303" fill="#182F5B" cx="977.679" cy="180.66" r="4"></circle><circle id="_x33_70304" fill="#182F5B" cx="983.078" cy="180.66" r="4"></circle><circle id="_x33_70302" fill="#182F5B" cx="979.478" cy="177.061" r="4"></circle><circle id="_x33_70307" fill="#182F5B" cx="968.087" cy="182.338" r="4"></circle><circle id="_x33_70318" fill="#182F5B" cx="950.106" cy="209.225" r="4"></circle><circle id="_x33_70322" fill="#182F5B" cx="989.708" cy="261.281" r="4"></circle><circle id="_x33_70321" fill="#182F5B" cx="1011.606" cy="246.238" r="4"></circle><circle id="_x33_70306" fill="#182F5B" cx="996.625" cy="231.838" r="4"></circle><circle id="_x33_70324" fill="#182F5B" cx="1027.509" cy="224.638" r="4"></circle></g><g id="柳州"><circle id="_x33_70207" fill="#182F5B" cx="880.113" cy="244.439" r="4"></circle><circle id="_x33_70206" fill="#182F5B" cx="894.103" cy="293.037" r="4"></circle><circle id="_x33_70202" fill="#182F5B" cx="897.703" cy="282.537" r="4"></circle><circle id="_x33_70203" fill="#182F5B" cx="892.944" cy="278.939" r="4"></circle><circle id="_x33_72101" fill="#182F5B" cx="892.304" cy="282.537" r="4"></circle><circle id="_x33_70201" fill="#182F5B" cx="901.072" cy="273.515" r="4"></circle><circle id="_x33_70299" fill="#182F5B" cx="897.703" cy="277.138" r="4"></circle><circle id="_x33_70204" fill="#182F5B" cx="894.103" cy="273.515" r="4"></circle><circle id="_x33_70208" fill="#182F5B" cx="930.108" cy="230.037" r="4"></circle><circle id="_x33_70209" fill="#182F5B" cx="881.912" cy="196.447" r="4"></circle><circle id="_x33_70218" fill="#182F5B" cx="861.389" cy="168.918" r="4"></circle><circle id="_x33_70217" fill="#182F5B" cx="890.503" cy="214.625" r="4"></circle></g></g><g id="海南"><g id="文昌"><circle id="_x33_80302" fill="#182F5B" cx="1039.927" cy="766.95" r="4"></circle></g><g id="琼海"><circle id="_x33_80303" fill="#182F5B" cx="999.483" cy="834.05" r="3.999"></circle></g><g id="石宁"><circle id="_x33_80304" fill="#172E58" cx="986.632" cy="875.713" r="4"></circle></g><g id="定安"><circle id="_x33_80305" fill="#172E58" cx="992.669" cy="802.586" r="4"></circle></g><g id="屯昌"><circle id="_x33_80306" fill="#172E58" cx="963.753" cy="821.868" r="4"></circle></g><g id="临亭"><circle id="_x33_80502" fill="#172E58" cx="930.535" cy="768.575" r="4"></circle></g><g id="儋州市_1_"><circle id="_x33_80503" fill="#172E58" cx="896.886" cy="778.743" r="4"></circle><circle id="_x33_80501" fill="#172E58" cx="875.253" cy="764.325" r="4"></circle><circle id="_x33_80599" fill="#172E58" cx="909.593" cy="788.61" r="4"></circle></g><g id="三亚"><circle id="_x33_80299" fill="#172E58" cx="887.389" cy="915.993" r="4"></circle><circle id="_x33_80201" fill="#172E58" cx="888.139" cy="920.038" r="4"></circle></g><g id="东方"><circle id="_x33_80504" fill="#172E58" cx="839.369" cy="855.813" r="4"></circle></g><g id="昌江黎族"><circle id="_x33_80505" fill="#172E58" cx="858.016" cy="829.344" r="4"></circle></g><g id="五指山"><circle id="_x33_80319" fill="#172E58" cx="907.593" cy="868.743" r="4"></circle></g><g id="乐东黎族"><circle id="_x33_80506" fill="#172E58" cx="853.753" cy="895.381" r="4"></circle></g><g id="陵水黎族"><circle id="_x33_80321" fill="#172E58" cx="954.048" cy="905.743" r="4"></circle></g><g id="白沙黎族自治县_1_"><circle id="_x33_80507" fill="#172E58" cx="892.481" cy="836.524" r="4"></circle></g><g id="琼中黎族苗族"><circle id="_x33_80323" fill="#172E58" cx="941.406" cy="849.801" r="4"></circle></g><g id="报亭黎族苗族自治区县"><circle id="_x33_80324" fill="#172E58" cx="919.08" cy="902.754" r="4"></circle></g><g id="海口"><circle id="_x33_80104" fill="#182F5B" cx="1000.233" cy="755.135" r="4"></circle><circle id="_x33_80103" fill="#182F5B" cx="992.667" cy="751.051" r="4"></circle><circle id="_x33_80199" fill="#182F5B" cx="991.917" cy="749.301" r="4"></circle><circle id="_x33_80101" fill="#182F5B" cx="996.96" cy="748.551" r="4"></circle><circle id="_x33_80499" fill="#182F5B" cx="993.419" cy="745.159" r="4"></circle><circle id="_x33_80399" fill="#182F5B" cx="995.419" cy="748.301" r="4"></circle><circle id="_x33_80307" fill="#182F5B" cx="985.882" cy="750.551" r="4"></circle><circle id="_x33_80699" fill="#182F5B" cx="988.604" cy="747.551" r="4"></circle><circle id="_x33_80102" fill="#182F5B" cx="981.022" cy="746.659" r="4"></circle></g><g id="海南高院"><circle id="mapid-380000-circle" fill="#182F5B" cx="994.169" cy="746.993" r="4"></circle></g></g></g></g></svg>